<?xml version="1.0" encoding="UTF-8"?>
<svg id="katman_1" data-name="katman 1" xmlns="http://www.w3.org/2000/svg" viewBox="0 0 3614.07 2427.35">
  <defs>
    <style>
      .cls-1 {
        fill: #00bf63;
        stroke-width: 0px;
      }
    </style>
  </defs>
  <path class="cls-1" d="m.03,1728.04c16.05,6.47,32.04,13.1,48.17,19.36,8.97,3.48,18.1,6.65,27.32,9.4,16.07,4.8,30.2-.29,43.19-9.61,8.12-5.82,15.96-12.03,24.03-17.94,21.89-16.04,46.39-23.86,73.57-24.7,32.03-.99,62.77,6.03,93.65,12.88,26.28,5.83,52.55,11.96,79.1,16.3,15.98,2.62,32.46,2.53,48.73,2.82,15.09.27,29.95,1.29,44.12,6.89,35.73,14.12,57.42,40.56,64.64,77.8,2.68,13.84.55,28.58.92,42.9.15,5.95.74,11.94,1.77,17.81,2.02,11.56,8.26,20.52,18.96,25.38,9.35,4.25,19.06,7.94,28.93,10.79,91.46,26.4,172.24,71.96,244.1,134.14,30.47,26.36,61.63,51.97,93.31,76.86,21.01,16.5,44.6,28.95,69.93,38.04,34.79,12.47,69.76,11.62,105.18,3.28,19.43-4.58,39.1-8.61,59.22-7.57,22.16,1.14,42.59,7.06,58.67,23.77,6.4,6.65,10.66,14.4,14.06,22.79,1.88,4.63,3.54,9.36,5.64,13.88,6.73,14.51,14.2,18.12,29.66,14.12,7.41-1.91,14.72-4.22,21.99-6.62,44.29-14.65,87.88-31.15,130.62-49.85,62.66-27.41,123.42-58.51,181.56-94.54,25.75-15.96,50.94-32.88,75.87-50.11,9.23-6.38,17.62-14.33,25.26-22.6,14.12-15.3,21.36-33.35,18.88-54.7-1.8-15.53-9.43-26.67-23.42-33.56-12.78-6.29-26.88-7.26-40.5-10.23-9.72-2.12-19.63-3.84-28.98-7.1-21.38-7.46-36.21-23.28-48.92-41.18-10.99-15.48-21.42-31.35-32.14-47.02-13.22-19.31-30.54-33.05-53.09-40.31-18.93-6.09-30.46-18.7-34.3-38.99-3.22-17.03-2.98-33.62,0-50.5,2.6-14.73,5.33-29.49,6.77-44.35,1.76-18.2-3.88-35.61-8.13-53.03-6.91-28.29-3.68-54.88,12.4-79.41,10.49-16.01,23.42-29.92,38.65-41.53,13.51-10.29,27.22-20.32,41.08-30.13,25.88-18.3,48.85-39.25,63.06-68.25,6.01-12.26,11.38-24.82,17.38-37.08,7.75-15.83,15.24-31.84,23.94-47.14,11.81-20.76,29.43-35.9,49.94-47.84,12.66-7.37,25.33-14.75,37.83-22.4,15.76-9.65,27.69-22.8,35.28-39.76,1.22-2.73,2.71-5.35,4-8.06,10.68-22.3,28.09-36.98,51.48-44.28,12.68-3.96,25.75-6.65,38.64-9.94,6.77-1.73,13.63-3.19,20.26-5.35,18.62-6.07,33.92-16.63,44.79-33.31,20.28-31.14,33.23-64.68,31.46-102.33-1.9-40.42-21.53-68.02-57.68-83.92-18.75-8.25-38.96-10.89-59.22-12.93-24.81-2.51-49.74-4.67-73.37-13.5-13.69-5.12-25.76-12.49-32.33-26.52-4.51-9.64-6.22-19.72-4.27-30.14,3.06-16.34,6.8-32.56,9.81-48.91,3.89-21.11,2.93-41.24-13.6-57.64-1.4-1.39-2.4-3.19-3.61-4.78-7.93-10.41-11.25-21.86-7.12-34.65,2.04-6.31,4.69-12.43,7.22-18.57,2.91-7.07,5.89-14.12,9-21.1,6.52-14.66,2.64-28.12-5.09-40.83-12.23-20.14-30.97-29.47-53.97-31.1-21.49-1.53-41.42,4.47-61.1,12.28-12.95,5.14-25.97,10.64-39.48,13.71-25.58,5.81-47.58-7.74-54.38-33.02-3.34-12.41-6.23-25.23-3.09-38.4,1.46-6.13-.46-10.97-6.21-14.36-19.19-11.33-34.17-27.42-49.21-43.53-11.36-12.16-23.04-24.07-35.24-35.37-18.94-17.55-41.65-26.79-67.37-29.53-18.48-1.97-36.95-4.59-55.21-8.04-14.3-2.7-27.06-9.35-37.06-20.38-9.76-10.76-14.65-23.23-15.41-37.97-1.51-29.26,11.01-52.42,30.6-72.23,12.61-12.75,26.47-24.33,40.27-35.84,31.21-26.04,62.66-51.78,94.14-77.5,15.76-12.87,26.56-28.73,31.17-48.7,1.87-8.1,4.03-16.15,6.32-24.14,5.3-18.53,13.46-35.45,27.71-48.98,2.83-2.69,4.9-6.17,7.32-9.29h24c-20.54,12.46-36.65,28.8-44.57,51.99-3.01,8.81-5.89,17.75-7.64,26.87-5.39,27.96-20.73,48.96-42.64,66.54-38.18,30.65-75.82,61.98-113.34,93.44-16.19,13.57-30.36,29.09-37.64,49.56-4.43,12.45-5.67,25.37-2.48,38.2,3.77,15.19,13.66,25.67,27.8,32.08,14.78,6.69,30.74,8.18,46.57,10.23,13.5,1.74,27.02,3.47,40.4,5.91,20.92,3.81,38.74,14.28,54.24,28.33,12.81,11.61,24.95,24.03,36.73,36.7,16.38,17.64,32.92,34.95,54.74,46.02,3.81,1.93,5.34,4.76,4.91,8.87-.28,2.64-.37,5.31-.82,7.93-2.19,12.71-.99,25.3,2.27,37.57,5.3,19.93,21.97,30.2,42.03,25.44,10.29-2.44,20.35-6.29,30.12-10.42,16.93-7.16,34-13.67,52.39-15.72,35.56-3.96,70.55,9.12,86.86,43.23,8.13,17,7.51,34.14.2,51.21-3.93,9.18-8.26,18.19-12.16,27.38-4.92,11.58-3.09,22.11,5.5,31.41,9.91,10.74,17.4,22.75,19.36,37.57,1.64,12.4-.23,24.57-2.68,36.68-2.5,12.39-5.14,24.75-7.7,37.12-.4,1.95-.83,3.92-.99,5.9-1.81,23.16,5.92,35.36,27.76,43.87,16.27,6.34,33.36,8.92,50.57,10.89,26.07,2.99,52.4,4.51,77.35,13.81,32.88,12.25,56.13,34.06,66.47,68.12,5.77,19.02,6.93,38.44,3.37,58.2-5.15,28.6-15.7,54.86-31.63,79.17-16.02,24.45-39.24,37.05-67,43.1-13.63,2.98-27.16,6.45-40.63,10.1-22.99,6.24-39.55,20.38-48.81,42.29-9.75,23.06-25.82,40.13-47.11,52.69-9.47,5.58-18.77,11.48-28.49,16.57-27.62,14.48-47.44,36.2-60.57,64.23-7.49,15.98-15.16,31.89-21.98,48.16-15.83,37.8-41.74,66.87-75.17,89.97-16.43,11.35-32.57,23.22-48,35.88-15.28,12.54-27.78,27.62-36.08,45.97-6.72,14.85-7.72,30.2-5.43,45.92,1.1,7.55,2.84,15.04,4.83,22.41,6.71,24.9,6.55,49.82,1.3,74.95-3.06,14.65-6.1,29.44-4.73,44.51.81,8.87,2.6,17.71,4.59,26.41,1.73,7.54,6.7,12.96,13.69,16.3,5.4,2.58,10.8,5.26,16.43,7.25,17.44,6.17,32.33,16.2,43.35,30.89,14.18,18.89,27.23,38.63,40.9,57.91,10.92,15.4,23.32,29.65,41.41,36.42,11.41,4.27,23.79,5.96,35.75,8.7,9.06,2.08,18.35,3.39,27.21,6.11,33.21,10.21,45.16,38.08,39.31,69.95-4.39,23.92-18.85,41.92-37.3,56.26-19.43,15.09-39.83,29.04-60.47,42.46-52.29,33.99-106.87,64-163.12,90.91-48.68,23.29-98.45,44.03-149.54,61.49-15.74,5.38-31.57,10.53-47.36,15.77-2.21.73-4.45,1.4-6.7,2-16.77,4.42-30.5-1.27-38.59-16.65-4.17-7.94-7.4-16.37-11.05-24.58-6.35-14.28-17.53-23.29-31.9-28.41-17.68-6.29-35.99-6.51-54.25-3.6-17.07,2.71-33.99,6.33-50.97,9.57-31.89,6.09-62.83,2.37-93.16-8.67-32.35-11.78-60.88-30.15-87.46-51.49-26.22-21.06-51.75-42.99-77.19-65-46.41-40.15-97.14-73.52-152.88-99.27-31.82-14.7-64.91-25.84-98.42-35.9-7.58-2.28-14.98-5.6-21.95-9.41-12.11-6.62-18.81-17.74-22.3-30.7-3.33-12.34-3.51-25.11-2.22-37.71,2.78-27.16-5.28-50.35-23.64-70.33-18.27-19.89-40.92-28.86-67.7-28.5-39.5.53-78.11-5.6-116.39-15.07-25.16-6.22-50.53-12.3-76.17-15.71-29.81-3.97-59.97-3.9-87.48,11.53-8.66,4.86-16.46,11.25-24.68,16.9-7.95,5.45-15.66,11.33-23.97,16.16-15.93,9.26-33.08,9.76-50.03,3.71-17.55-6.26-34.62-13.83-51.97-20.64-4.27-1.68-8.84-2.62-13.27-3.9v-14l-.06-.02Z"/>
  <path class="cls-1" d="m3614.03,1318.04c-28.49-11.95-58.23-18.63-88.97-20.94-20.54-1.54-41.14-2.39-61.66-4.11-41.74-3.48-83.43-7.53-124.38-16.8-43.46-9.84-86.77-20.32-130.27-29.95-36.03-7.97-72.09-15.99-108.44-22.28-24.16-4.18-48.62-7.53-73.39-7.01-10.6.22-21.26-1.81-31.83-1.35-45.62,1.97-90.6,8.18-134.74,20.47-49.9,13.9-97.74,32.96-144.06,55.94-36.42,18.06-72.25,37.22-105.97,60.04-28.51,19.29-55.2,40.7-77.03,67.67-28.02,34.62-45.62,73.86-54.28,117.52-5.06,25.48-5.2,51.13-3.26,76.59,2.39,31.4,11.4,61.5,26.23,89.47,29.58,55.78,73.06,96.94,130.9,122.58,21.73,9.63,44.67,15.14,68.06,18.95,29.39,4.79,59.02,4.49,88.63,4.04,30.61-.47,61.26-.66,91.8-2.48,18-1.07,35.94-.48,53.67.92,59.58,4.7,115.27,20.99,161.16,61.62,21.1,18.69,36.17,41.64,43.24,69.32,1.98,7.73,4.04,15.45,5.83,23.22,4.56,19.85,15.03,35.83,32.84,45.67,17.73,9.79,36.05,18.63,54.6,26.76,22.59,9.9,46.06,17.25,70.48,21.54,37.45,6.59,72.71.39,106.19-17.1,28.61-14.96,56.85-30.67,85.83-44.87,21.01-10.3,43.75-16.12,67.06-18.48,17.17-1.73,34.5-2.02,51.75-2.95v14c-5.82-.87-11.73-2.83-17.46-2.42-18.21,1.29-36.42,2.72-54.34,6.81-26.21,5.99-50.59,16.32-74,29.33-19.5,10.83-39.05,21.59-58.91,31.75-38.4,19.63-78.84,22.69-120.48,13.23-37.59-8.54-72.67-23.73-106.88-41.13-28.42-14.46-45.06-37.61-50.75-68.88-7.7-42.34-31.81-73.19-67.57-95.72-34.14-21.5-71.73-32.77-111.49-38.05-26.83-3.56-53.74-4.13-80.68-3.42-19.58.51-39.12,3.04-58.7,3.25-27.6.3-55.23-.44-82.83-1.24-21.67-.63-42.94-4.36-63.96-9.79-36.7-9.48-69.59-26.46-99.22-49.85-41.56-32.81-71.29-74.29-89.41-124-12.14-33.3-16.37-67.83-14.59-103.1,2.13-42.19,13.4-81.89,33.39-119.11,23.75-44.23,58.87-77.92,99.61-106.06,44.79-30.93,92.74-56.31,142.15-79.03,39.4-18.11,79.81-33.39,121.69-44.66,31.52-8.48,63.41-15.61,96.05-17.25,30.22-1.51,60.67-3.17,90.77-1.14,48.79,3.3,96.82,12.87,144.42,24.21,42.38,10.1,84.61,20.92,127.2,30.07,29.2,6.27,58.8,11.03,88.42,14.98,24,3.2,48.3,4.21,72.47,6.16,34.77,2.81,69.7,4.47,103.59,13.81,10.54,2.91,20.99,6.15,31.49,9.24v14h.03Z"/>
  <path class="cls-1" d="m2846.03.04c-12.1,17.54-24.96,34.6-36.12,52.71-18.93,30.73-30.49,64.45-34.16,100.33-3.83,37.51,3.67,72.99,24.46,104.95,13.43,20.65,27.71,40.76,41.11,61.43,11.64,17.96,21.17,36.82,24.59,58.45,2.42,15.28.45,29.8-4.28,44.16-3.53,10.74-7.84,21.24-11.25,32.01-6.82,21.56-3.44,42.07,7.36,61.6,15.45,27.93,39.98,44.97,68.7,56.76,31.52,12.95,64.72,20.22,97.68,28.27,33.49,8.18,67.49,12.39,101.91,10.1,48.59-3.23,89.55-21.94,118.4-62.62,11.43-16.12,17.49-34.3,16.55-54.4-.9-19.27-1.97-38.53-2.58-57.81-.78-24.47,4.52-47.04,22.72-64.84,8.1-7.92,17.84-12.78,29.54-12.47,11.64.31,23.29.5,34.9,1.22,16.93,1.05,29.2-6.39,34.37-22.75,3.09-9.77,4.53-20.06,6.71-30.11,1.69-7.79,2.92-15.72,5.15-23.36,5.1-17.45,15.71-30.62,31.96-39.08,12.29-6.4,25.21-9.26,39.19-10.2,33.42-2.26,61.66,10.89,89.36,26.9,20.44,11.81,41.15,23.17,61.74,34.73v14c-18.57-10.42-37.13-20.83-55.7-31.25-10.74-6.03-21.44-12.15-32.23-18.09-16.3-8.96-33.88-14.13-52.34-14.96-16.44-.74-32.5,2.04-47.05,10.63-14.47,8.54-22.14,21.71-25.47,37.72-2.77,13.34-4.88,26.83-8.06,40.07-1.53,6.36-4.18,12.71-7.55,18.33-7.37,12.31-18.62,18.95-33.13,18.79-10.62-.12-21.23-1.14-31.85-1.64-17.4-.82-31.49,5.18-40.05,20.92-9.13,16.78-12.27,34.61-10.31,53.92,2.04,20.14,3.69,40.61,2.38,60.73-1.75,26.87-14.74,49.61-33.66,68.52-26.55,26.53-58.77,41.97-95.89,47.44-30.31,4.47-60.44,2.66-90.39-2.58-37.4-6.55-74.2-15.77-110.32-27.45-24.52-7.94-47.77-18.67-67.46-35.89-21.86-19.11-36.18-42.47-39.77-71.66-1.75-14.22,1.82-27.79,6.47-41.06,2.75-7.86,6-15.54,8.73-23.4,9.14-26.36,4.65-51.6-8.59-75.05-10.62-18.8-23.12-36.57-35.23-54.49-14.39-21.29-28.84-42.52-36-67.59-6.54-22.9-8.7-46.06-6.31-70.02,5.2-52.09,27.09-96.94,57.24-138.56,3.1-4.28,5.71-8.9,8.55-13.36h16-.02Z"/>
  <path class="cls-1" d="m3614.03,376.04c-30.39-9.76-60.54-20.38-91.29-28.84-11.52-3.17-24.54-2.6-36.67-1.48-18.74,1.73-29.61,15.53-30.68,35.83-.33,6.29-.16,12.75-1.62,18.79-3.32,13.72-12.48,23.24-24.37,30.28-14.62,8.65-30.83,12.18-47.41,14.46-16.66,2.29-24.52,9.59-26.58,26.11-1.81,14.49-2.82,29.09-4.02,43.66-1.73,20.91-4.42,41.66-10.47,61.83-10.9,36.38-33.5,62.97-66.97,80.75-23.85,12.67-49.46,19.45-75.85,23.78-35.69,5.85-71.74,5.17-107.61,3.59-48.93-2.16-97.2-9.99-144.66-22.13-26.75-6.84-53.05-15.46-79.9-21.83-16.4-3.89-33.39-6.21-50.23-7.14-21.19-1.18-41.59,4.22-61.14,12.38-11.37,4.74-22.53,9.97-33.88,14.74-21.63,9.09-44.12,14.94-67.56,16.47-25.54,1.66-51.13,2.55-76.66,4.26-42.23,2.82-83.9,9.3-124.79,20.48-70.34,19.23-135.63,49.19-195.45,91.1-27.1,18.98-52.63,39.73-75.78,63.36-20.73,21.15-37.74,44.88-48.52,72.63-5.79,14.92-9.12,30.45-10.98,46.46-5.96,51.27,6.52,99.1,26.3,145.58,16.99,39.94,38.38,77.63,61.15,114.46,7.09,11.47,16.36,21.84,25.84,31.53,15.42,15.78,34.45,21.67,56.48,17.39,6.48-1.26,13.2-1.31,19.81-1.82,11.74-.9,20.7,4.46,27.54,13.32,4.87,6.3,9.55,12.93,13.07,20.04,17.73,35.79,49.79,41.93,79.47,37.81,27.13-3.77,48.95-18.44,69.19-35.68,17.23-14.68,33.75-30.21,51.07-44.78,43.25-36.37,92.16-63.05,144.56-83.79,50.69-20.06,103.3-32.92,156.82-42.14,23.55-4.06,47.44-6.2,71.22-8.77,32.4-3.5,64.85-6.12,97.51-6.16,31.94-.04,63.91-2.01,95.82-1.3,45.6,1.02,89.76,9.79,131.7,28.67,20.95,9.44,42.51,17.55,65.3,21.47,12.76,2.19,25.61,4.28,38.5,5.09,21.9,1.39,43.88,1.64,65.81,2.55,25.89,1.07,51.75,2.28,77.54,5.32,31.43,3.71,62.42,9.5,93.21,16.6,5.18,1.19,10.27,2.85,15.46,3.97,3.17.69,6.46.78,9.7,1.13v4c-23.62-5.53-47.08-12-70.92-16.33-24.82-4.5-49.93-7.95-75.06-9.98-25.52-2.07-51.23-1.5-76.83-2.72-32.52-1.56-65.33-2.09-96.69-12.07-20.58-6.55-40.69-14.65-60.78-22.63-24.27-9.64-49.22-15.94-75.14-19.39-44.49-5.92-89.11-3.62-133.68-3.28-22.57.17-45.15,2.11-67.68,3.84-70.45,5.38-140.12,15.57-207.99,35.85-54.19,16.19-105.76,38.26-153.31,69.26-24.07,15.69-46.48,33.43-67.56,52.94-19.31,17.88-38.6,35.85-62.09,48.38-21.18,11.31-43.34,16.22-67.42,11.59-19.92-3.83-34.88-14.12-45.32-31.33-4.49-7.41-8.77-14.96-13.59-22.14-6.34-9.46-14.65-16.74-26.49-17.67-6.17-.48-12.63.21-18.71,1.53-27.86,6.07-50.76-2.53-68.91-23.64-8.87-10.31-17.11-21.4-24.06-33.07-20.96-35.21-41.11-70.89-57.14-108.71-13.31-31.41-22.77-63.72-26.41-97.87-3.21-30.06.02-59.16,9.3-87.58,9.26-28.33,25.66-52.67,45.94-74.22,43.85-46.59,95.68-82.52,152.12-112.1,42.06-22.05,86.22-38.77,132.15-50.66,28.34-7.34,57.04-13.17,86.32-15.38,20.21-1.53,40.47-2.42,60.67-4.06,28.12-2.27,56.47-2.19,84.1-9.42,20.77-5.43,40.07-14.39,59.56-22.94,19.4-8.51,39.6-14.1,60.7-15.03,18.67-.83,37.2,2.28,55.27,6.83,26.78,6.74,53.29,14.5,79.99,21.58,35.09,9.3,70.73,15.41,106.83,19.65,36.22,4.26,72.47,4.61,108.69,3.32,37.41-1.33,73.98-7.96,108.19-24.66,37.25-18.19,62.17-46.61,72.1-86.93,4.27-17.34,6.22-35.31,8.51-53.08,1.95-15.15,2.6-30.46,4.33-45.64,2.11-18.52,11.69-27.35,30.54-29.64,15.97-1.94,31.37-5.94,45.38-14.28,15.14-9.02,23.75-21.8,24.13-39.87.14-6.61,1-13.3,2.4-19.76,3.08-14.2,16.85-24.49,34.26-25.77,15.72-1.16,31.28-.07,46.39,4.9,21.49,7.07,42.98,14.19,64.52,21.12,4.34,1.4,8.92,2.06,13.39,3.07v4l.02-.04Z"/>
  <path class="cls-1" d="m3614.03,1134.04c-24.35-8.27-49.45-13.22-74.85-16.77-43.97-6.15-88.24-5.53-132.49-6.34-46.7-.86-92.86-6.24-137.53-21.05-36.68-12.17-73.92-22.3-112.25-27.73-16.77-2.38-33.71-3.56-50.59-5.02-46.56-4.01-93.21-1.86-139.82-1.55-22.57.15-45.13,2.23-67.7,3.38-3.32.17-6.66.05-9.99.14-29.27.79-58.35,3.58-87.4,7.37-43.52,5.67-85.45,17.29-126.11,33.23-28.18,11.04-55.95,23.36-83.1,36.74-41.82,20.61-82.86,42.81-124.44,63.91-13,6.59-26.41,12.66-40.17,17.39-12.62,4.33-24.81,1.2-36.02-6.42-12.93-8.79-21.46-21.77-32.41-32.42-5.21-5.07-10.79-9.9-16.81-13.95-6.43-4.33-13.89-6.22-21.84-5.9-7.32.3-14.69-.16-21.98.42-13.62,1.09-23.78-5.03-32.38-14.65-12.63-14.13-21.49-30.42-27.15-48.46-14.16-45.06-9-88.73,9.95-131.23,15.94-35.73,40.82-64.57,70.47-89.54,33.91-28.56,72.11-50.18,112.29-68.43,32.19-14.62,65.39-26.52,99.62-35.45,30.61-7.99,61.61-13.63,93.08-17.28,32-3.71,64.28-5.94,95.7-13.64,18.41-4.51,36.68-9.66,54.86-15.02,20.49-6.03,41.26-10.87,62.51-12.44,16.58-1.23,33.31-.81,49.96-.48,27.98.55,55.59,4.92,83.24,8.85,27.63,3.93,55.31,7.58,82.97,11.33,28.45,3.85,57.1,4.67,85.68,3.42,41.23-1.8,82.26-6.34,122.19-17.33,24.68-6.79,49.19-14.34,73.36-22.77,17.32-6.04,33.64-14.53,46.43-28.44,10.03-10.91,16.42-23.57,17.52-38.33,1.18-15.91,1.19-31.9,2.23-47.82.8-12.24,1.47-24.62,3.81-36.61,7.35-37.65,44.74-64.42,75.79-64.57,5.94-.03,12.15-.47,17.73-2.28,4.43-1.44,8.86-4.61,11.9-8.19,3.59-4.22,5.41-9.88,8.47-14.61,12.01-18.58,30.12-26.46,51.32-28.5,15.22-1.46,29.78,1.62,43.94,7.04v4c-19.23-13.08-62.14-14.06-84.89,8.11-5.11,4.98-9.21,11.43-12.39,17.89-5.56,11.31-13.49,17.2-26.5,17.53-26.82.67-50.15,9.78-67.46,31.27-10.28,12.76-16.77,27.23-17.64,43.73-.92,17.27-.87,34.59-2.01,51.83-.72,10.89-1.94,21.91-4.52,32.49-4.56,18.74-16.75,32.27-32.69,42.52-18.68,12.02-39.61,18.91-60.47,25.85-37.05,12.32-75.16,20.02-113.75,25.51-7.89,1.12-15.87,1.9-23.83,2.21-22.28.88-44.61,2.67-66.83,1.78-25.18-1.01-50.31-4.15-75.37-7.11-26.08-3.08-52.11-6.67-78.05-10.74-25.38-3.98-50.85-5.31-76.51-6.07-38.21-1.13-74.78,6.31-110.9,17.46-29.63,9.15-59.77,15.66-90.64,19.14-30.05,3.38-60.12,6.92-89.94,11.87-45.82,7.61-89.93,21.48-132.71,39.55-33.84,14.29-66.35,31.1-96.66,51.92-33.23,22.83-62.58,49.63-84.6,83.86-16.67,25.92-26.93,53.97-30.85,84.6-3.67,28.73-.6,56.4,10.06,83.25,5.08,12.79,12.04,24.56,20.91,35.06,10.55,12.48,23.37,19,40.48,15.85,22.7-4.19,41.13,4.01,56.02,21.21,6.76,7.8,13.58,15.57,20.81,22.93,16.38,16.68,34.27,20.49,55.6,10.65,20.24-9.34,39.95-19.86,59.8-30.05,32.89-16.88,65.44-34.46,98.64-50.72,41.6-20.38,84.28-38.23,128.86-51.28,31.4-9.19,63.47-14.83,95.82-18.93,12.84-1.63,25.9-1.47,38.82-2.59,30.85-2.68,61.75-3.89,92.71-4.08,44.28-.26,88.62-2.64,132.83-1.14,58.02,1.97,115.04,11.55,170.31,30.36,27.75,9.45,56.24,16.33,85.28,20.56,9.52,1.39,19.19,2.08,28.82,2.38,30.28.94,60.58,1.23,90.85,2.36,49.94,1.86,99.59,6.01,147.76,20.72,1.5.46,3.23.18,4.85.25v4h-.01Z"/>
  <path class="cls-1" d="m.03,1850.04c8.77,1.56,17.48,4.02,26.3,4.51,43.78,2.42,86.97-2.05,129.99-10.55,25.72-5.08,51.85-8.44,77.95-11.11,18.81-1.92,37.94-2.72,56.8-1.72,39.51,2.1,75.89,13.84,106.21,40.5,19.92,17.52,35.6,38.69,50.81,60.22,7.69,10.88,15.55,21.64,23.27,32.51,28.54,40.18,67.18,66.79,112.57,84.67,25.08,9.88,49.92,20.37,74.7,30.99,37.55,16.08,69.16,41.05,99.76,67.5,28.73,24.82,57.02,50.21,86.66,73.9,25.69,20.54,54.5,36.15,87.43,42.04,15.67,2.8,31.44,4.19,47.61,2,19.4-2.62,39.05-3.62,58.62-4.77,22.42-1.32,43.71,4.18,63.96,13.22,19.16,8.55,37.99,17.85,56.75,27.26,26.35,13.22,53.65,23.58,82.83,28.3,10.15,1.64,20.45,2.49,30.7,3.42,8.6.78,17.28,2.04,25.84,1.55,37.62-2.16,74.72-7.6,110.93-18.49,45.51-13.68,88.87-32.47,130.08-55.93,51.23-29.17,101.78-59.55,152.83-89.05,40.13-23.19,81.31-44.34,124.99-60.12,33.26-12.01,67.32-20.97,102.68-24.25,12.24-1.14,24.46-3.28,36.7-3.32,75.9-.29,143.96,20.47,198.32,76.22,20.12,20.64,36.08,44.39,49.92,69.66,23.01,42,38.17,87.14,53.53,132.21,7.18,21.07,13.97,42.28,19.4,64.03-2.36-6.49-4.79-12.95-7.08-19.47-15.13-43-29.32-86.37-45.61-128.92-14.23-37.15-33.55-71.78-59.46-102.41-40.01-47.3-90.96-75.04-151.8-84.89-10.79-1.75-21.98-1.07-32.76-2.85-14.36-2.36-28.52-.17-42.73.3-24.7.81-48.91,5.32-72.85,11.19-50.52,12.39-97.82,33.02-142.9,58.46-56.85,32.08-112.78,65.8-169.45,98.21-52.22,29.87-106.82,54.14-165.45,68.99-40.8,10.33-82.15,13.73-123.81,10.73-33.4-2.41-65.35-11.88-95.58-26.77-23.59-11.62-47.28-23.08-71.23-33.93-27.27-12.35-56.11-12.89-85.29-9.65-14.86,1.65-29.72,4.08-44.63,4.46-34.19.87-65.59-9.37-94.96-26.4-31.35-18.18-58.07-42.31-85.08-66.11-19.24-16.95-38.61-33.78-58.24-50.28-29.67-24.94-63.77-42.16-99.55-56.42-20.72-8.25-41.3-16.83-61.86-25.48-42.99-18.1-76.69-47.38-103.32-85.42-13.94-19.92-28.46-39.45-43.22-58.76-14.52-19-32.24-34.51-53.36-46-18.06-9.83-37.46-15.49-57.63-18.69-21.85-3.46-43.93-3.23-65.8-1.6-22.17,1.65-44.22,5.21-66.22,8.59-24.64,3.78-49.06,9.23-73.78,12.24-33.43,4.06-67.04,4.8-100.52-.49-1.29-.2-2.64-.02-3.96-.02,0-1.34,0-2.68,0-4.01Z"/>
  <path class="cls-1" d="m1692.03.04c-16.29,7.52-33.16,14.03-48.76,22.78-28.74,16.13-47.09,41.52-59.74,71.52-5.16,12.25-10.92,24.28-17.01,36.11-10.2,19.8-25.97,34.51-44.64,46.13-15.83,9.86-32.19,18.86-47.94,28.83-8.68,5.5-16.87,11.88-24.79,18.46-16.79,13.96-14.29,35.36-5.74,48.94,7.09,11.25,16.61,20.22,28.59,25.77,15.98,7.4,32.45,13.74,48.74,20.48,9.53,3.94,19.23,7.49,28.63,11.71,20.46,9.18,36.06,23.64,46.13,43.85,2.67,5.37,5.55,10.64,8.04,16.09,12.94,28.36,34.91,46.83,63.94,56.64,17.92,6.05,36.45,10.32,54.71,15.35,21.46,5.92,43.45,10.41,64.3,18,48.92,17.81,79.92,52.97,92.49,103.39,4.4,17.64,5.98,36.03,8.2,54.16,2.58,21.12,4.4,42.32,10.89,62.78,9.15,28.82,28.25,47.81,56.66,57.37,34.91,11.74,70.65,14.62,107.33,11,45-4.44,84.65-22.3,122.29-45.79,29.67-18.51,58.71-38.06,88.72-55.99,35.58-21.25,72.97-38.8,113.98-47.01,13.64-2.73,27.57-4.92,41.44-5.48,21.62-.87,43.38-1.2,64.95.18,31.22,2,62.44,4.46,93.7,3.2,34.22-1.38,67.43-7.62,97.34-25.85,32.24-19.64,54.31-47.81,68.15-82.47,7.68-19.23,11.97-39.34,12.45-60.28.7-30.9-7.21-59.44-23.01-85.63-13.42-22.23-28.11-43.69-42.01-65.63-14.91-23.54-26.86-48.33-30.18-76.44-2.49-21.02-.73-41.78,3.95-62.41,8.21-36.18,24.32-68.95,42.78-100.73,9.2-15.84,18.75-31.48,27.98-47.31,2.16-3.71,3.65-7.8,5.44-11.72h4c-20.89,35.61-43.63,70.21-60.42,108.09-13.03,29.42-21.96,59.86-22.63,92.44-.59,28.46,6.67,54.82,20.54,79.24,9.69,17.06,21.15,33.11,31.49,49.82,9.28,15,18.93,29.85,26.96,45.52,24.16,47.09,22.41,94.9,1.69,142.61-12.33,28.39-31,51.92-56.16,70.14-21.48,15.56-45.75,24.46-71.6,28.97-25.66,4.47-51.71,5.7-77.62,3.94-35.22-2.39-70.41-3.74-105.7-3.82-38.3-.08-74.42,8.96-109.45,23.71-42.61,17.94-81.27,42.79-119.74,67.98-23.15,15.16-46.38,30.13-71.59,41.71-23.47,10.78-48.01,18.13-73.69,20.65-16.51,1.62-33.29,2.83-49.78,1.74-24.56-1.63-48.79-6.06-71.69-16.11-24.14-10.59-39.39-28.92-47.92-53.33-5.52-15.79-8.07-32.2-9.93-48.77-2.74-24.43-3.8-49.14-10.38-72.98-11.83-42.84-37.61-74.45-77.73-93.88-18.37-8.9-38.11-13.75-57.88-18.54-22.94-5.55-45.98-10.9-68.55-17.72-33.27-10.05-57.86-30.8-72.21-62.94-1.49-3.34-3.39-6.5-4.92-9.83-10.22-22.24-26.84-37.96-49.31-47.23-18.15-7.49-36.88-13.58-54.84-21.47-11.8-5.18-23.48-11.38-33.78-19.04-12.83-9.54-21.65-22.41-22.53-39.42-.54-10.37,3.17-18.8,10.16-26.16,12.1-12.75,27.15-21.37,41.99-30.31,13.69-8.25,27.56-16.23,40.89-25.03,18.78-12.41,32.53-29.29,41.82-49.83,5.35-11.83,11.27-23.42,16.46-35.32,14.54-33.32,39.28-56.51,71.28-72.59,4.75-2.39,9.8-4.23,14.46-6.77,2.39-1.3,4.24-3.6,6.33-5.45h14l-.02-.02Z"/>
  <path class="cls-1" d="m.03,1612.04c15.33,2.11,30.53,1.22,45.59-2.12,27.6-6.11,55.13-12.54,82.77-18.45,33.32-7.12,66.8-7.44,100.01.29,28.17,6.57,56.07,14.33,84.11,21.49,20.01,5.11,40.28,8.17,60.91,9.98,37.12,3.26,73.02-2.72,108.25-12.95,71.2-20.69,131.24-60.01,181.19-114.23,54.08-58.7,90.64-127.11,108.32-205.28,5.22-23.08,9.32-46.27,9.91-69.99.35-13.95,1.71-27.92,1.31-41.84-.56-19.58-2.73-39.12-3.44-58.7-.62-16.97-.68-34.01-.06-50.98,1.03-28.25,8.95-55.01,18.92-81.27,10.75-28.3,22.4-56.25,30.03-85.7,10.98-42.4,13.39-85.53,10.41-128.83-1.82-26.46-6.84-52.65-15.23-78.14-14.87-45.15-55.18-59.64-93.83-54.85-26.47,3.28-49.67,14.68-71.89,28.35-23.26,14.3-45.72,29.92-69.19,43.84-35.94,21.32-74.4,37.11-114.22,49.74-34.02,10.79-68.75,18.49-103.88,24.24-19.65,3.21-39.61,4.58-59.42,6.84-44.79,5.1-89.77,4.85-134.67,3.37-39.21-1.3-78.43-4.64-116.25-16.19-15.23-4.65-29.86-11.26-44.76-16.96-4.95-1.89-9.91-3.76-14.86-5.64v-4c20.14,10.46,40.84,19.53,62.87,25.33,29.69,7.82,59.83,12.87,90.56,13.57,35.28.8,70.57,1.99,105.84,1.47,23.87-.36,47.76-2.76,71.52-5.4,22.77-2.53,45.53-5.78,68.04-10.05,85.17-16.18,164.1-47.57,235.3-97.67,19.62-13.81,40.1-26.31,62.68-34.99,14.76-5.67,30.1-9.54,45.73-9.07,41.5,1.25,70.84,17.72,84.79,64.89,11.62,39.32,15.38,79.58,13.99,120.45-1.6,47.11-12.5,92.1-29.8,135.78-9.8,24.74-20.29,49.31-25.56,75.57-2.02,10.08-4.21,20.32-4.47,30.53-.62,23.65-.57,47.33.08,70.98.55,20.25,3.61,40.49,3.23,60.7-.78,42.36-6.81,84.03-19.24,124.78-19.77,64.83-52.43,122.31-97.56,172.56-29.78,33.16-63.94,61.23-102.85,83.38-35.9,20.43-73.91,34.98-114.33,43.48-29.65,6.24-59.67,6.56-89.51,4.27-25.86-1.98-50.92-9.51-76.04-16.16-24.41-6.47-49.04-12.25-73.76-17.46-24.71-5.2-49.62-4.21-74.25,1-29.93,6.33-59.68,13.56-89.65,19.66-11.33,2.31-23.08,2.61-34.64,3.7-4.3.41-8.63.46-12.95.68v-4H.03Z"/>
  <path class="cls-1" d="m3614.03,1404.04c-15.19-3.58-30.28-7.73-45.6-10.6-22.21-4.17-44.57-7.64-66.92-10.99-18.4-2.76-36.89-4.92-55.35-7.3-18.12-2.34-36.25-4.64-54.38-6.92-18.46-2.33-36.93-4.61-55.4-6.92-18.8-2.34-37.59-4.71-56.39-7.03-19.46-2.41-38.92-4.79-58.38-7.16-18.8-2.29-37.58-4.76-56.41-6.79-18.5-1.99-37.03-3.85-55.59-5.14-22.54-1.57-45.11-2.91-67.69-3.54-12.59-.35-25.23,1-37.84,1.52-52.55,2.17-103.64,12.23-153.42,28.93-50.52,16.95-97.78,40.54-141.42,71.18-29.68,20.85-56.05,45.14-75.56,76.08-16.65,26.41-26.35,54.92-26.75,86.58-.29,23.13,3.37,45.02,14.28,65.54,11.47,21.58,29.13,37.02,49.52,49.62,26.35,16.28,55.31,26.1,85.24,33.2,31.77,7.53,64.1,11.35,96.53,14.89,43.25,4.72,86.78,7.94,129.3,17.92,46.49,10.92,90.5,27.35,127.51,58.9,19,16.19,33.34,36.09,46.57,57.04,12.43,19.69,24.86,39.48,38.77,58.12,16.61,22.27,39.75,36.15,65.82,45.07,23.23,7.95,47.41,10.98,71.76,10.19,28.61-.92,57.11-4.48,84.69-12.37,35.83-10.25,71.3-21.72,106.98-32.48,26.13-7.88,52.44-15.02,79.54-18.91,3.59-.51,7.08-1.75,10.62-2.65v4c-15.69,2.65-31.7,4.1-46.99,8.22-31.78,8.57-63.39,17.9-94.68,28.13-36.78,12.02-74,21.7-112.43,26.51-31.38,3.93-62.4,2.1-92.89-6.32-38.8-10.72-67.71-34.71-89.31-68.04-10.32-15.93-20.31-32.08-30.21-48.27-26.14-42.76-64.45-70.17-110.43-87.99-33.37-12.93-67.98-20.88-103.42-25.21-28.69-3.5-57.42-6.61-86.13-9.88-40-4.55-79.84-9.92-118.44-22.03-28.82-9.04-56.12-21.07-79.56-40.54-29.4-24.43-43.8-55.97-44.95-94.14-1.43-47.64,16.82-87.52,47.1-122.8,29.07-33.87,65.46-58.37,104.01-79.94,50.65-28.33,104.54-48.07,161.33-59.78,22.12-4.56,44.37-8.51,67.07-9.42,17.91-.72,35.79-3.22,53.68-3.27,19.23-.05,38.47,1.77,57.7,2.92,11.28.68,22.57,1.32,33.8,2.54,33.68,3.66,67.34,7.57,101,11.44,19.15,2.2,38.29,4.46,57.42,6.8,17.48,2.14,34.94,4.45,52.41,6.64,19.78,2.47,39.57,4.83,59.35,7.35,23.73,3.03,47.45,6.07,71.15,9.33,23.04,3.17,46.12,6.18,69.05,10.07,22.93,3.89,45.7,8.79,68.54,13.19,1.91.37,3.89.35,5.84.5v4h-.04Z"/>
  <path class="cls-1" d="m1890.03.04c-20.63,6.45-41.39,12.54-61.86,19.46-18.56,6.28-37.22,12.56-55.11,20.49-25.27,11.21-43.39,30.36-55.47,55.26-5.09,10.48-10.27,20.92-15.79,31.18-8.58,15.95-21.43,27.94-36.57,37.5-10.41,6.58-21.29,12.41-31.69,19.01-7.85,4.99-15.68,10.17-22.8,16.12-17.16,14.34-15.83,27.38-4.88,43.74,7.89,11.8,20.44,17.9,32.9,23.54,10.3,4.66,20.95,8.53,31.49,12.65,22.48,8.79,39.08,23.49,48.25,46.32,7.66,19.08,19.44,35.39,38.5,44.17,13.81,6.36,28.6,10.71,43.16,15.28,19.03,5.97,38.65,10.24,57.33,17.1,30.54,11.2,53.3,32.32,69.62,60.24,8.84,15.13,12.52,32.12,16.06,49.11,3.18,15.29,6.03,30.7,10.29,45.7,8,28.14,26.6,46.05,54.78,54.39,17.96,5.32,36.09,8.63,54.83,9.85,37.11,2.41,72.19-4.65,105.07-21.58,23.08-11.88,45.43-25.19,68.23-37.63,31.37-17.11,63.66-31.98,98.87-39.56,24.9-5.36,50.11-6.29,75.45-5.61,28.27.76,56.55,2.04,84.82,2.02,24.86-.01,48.97-4.94,71.41-16.15,29-14.48,48.48-37.79,61.57-67,8.03-17.92,11.96-36.96,11.8-56.25-.2-24.3-7.46-47.19-20.24-68.11-9.72-15.92-19.45-31.83-29.06-47.81-21.92-36.48-23.25-74.72-10.06-114.38,10.73-32.24,28.45-60.82,45.56-89.79,9.14-15.47,17.67-31.32,26.1-47.19,1.92-3.62,2.33-8.04,3.44-12.09h4c-8.52,22.95-21.81,43.38-34.1,64.34-12.97,22.12-26.38,43.96-36.43,67.67-10.84,25.57-16.46,52-14.24,79.78,1.21,15.12,6.09,29.39,13.38,42.58,7.88,14.27,16.6,28.09,25.03,42.05,9.99,16.56,19.42,33.29,24.51,52.23,8.73,32.46,3.72,63.36-10.28,93.07-12.53,26.61-31.38,47.74-57.71,61.65-16.39,8.66-33.88,14.5-52.24,15.63-25.87,1.59-51.86,1.82-77.79,1.9-17.94.06-35.88-1.4-53.83-1.68-42.23-.66-81.66,10.89-118.97,29.57-27.37,13.71-54.11,28.72-80.79,43.77-26.68,15.06-54.67,26.72-85.18,29.74-37.47,3.71-74.64,1.27-109.42-15.22-19.24-9.13-32.86-24.2-38.8-44.73-5.54-19.12-9.86-38.64-13.83-58.17-11.01-54.13-43.67-88.44-95.54-105.12-14.86-4.78-30.36-7.56-45.26-12.26-14.55-4.59-29.09-9.62-42.92-15.99-15.22-7.01-26.31-19.04-33.85-34.14-2.23-4.47-4.77-8.82-6.66-13.43-9.12-22.29-26.69-35.05-48.26-43.49-11.15-4.37-22.38-8.61-33.25-13.59-11.89-5.45-22.93-12.35-30.47-23.54-11.47-17.05-9.47-33.08,6.72-45.72,9.94-7.76,20.75-14.45,31.51-21.08,14.72-9.08,30.09-17.05,42.56-29.49,9.86-9.83,16.89-21.33,22.88-33.68,4.36-8.98,8.59-18.04,13.43-26.77,14.2-25.6,36.1-42.64,62.85-53.11,19.47-7.62,39.66-13.4,59.59-19.81,8.23-2.65,16.68-4.6,24.91-7.24,3.22-1.03,7.64-.89,8.42-5.74,4.7.04,9.36.04,14.03.04Z"/>
  <path class="cls-1" d="m.03,1520.04c10.65,2.31,21.2,5.71,31.97,6.69,21.41,1.96,42.38-2.31,63.29-6.64,22.12-4.57,44.24-9.42,66.58-12.58,16.81-2.38,33.95-.73,50.68,2.32,26.16,4.78,52.16,10.44,78.29,15.38,32.1,6.06,64.24,5.57,96.17-1.18,62.43-13.21,116.57-42.52,163.57-85.36,41.33-37.67,71.95-82.82,92.63-134.64,11.52-28.85,18.75-58.77,22.02-89.83,3.09-29.31,2-58.62,1.09-87.83-1.19-37.8,6.54-73.36,20.98-107.85,8.89-21.24,16.64-42.88,21.16-65.47,6.24-31.13,8.64-62.48,4.76-94.25-2.15-17.57-5.11-34.86-10.07-51.82-5.03-17.16-13.54-32.23-29.71-40.89-8.03-4.3-17.26-7.47-26.26-8.6-22.8-2.87-44.41,2.47-64.41,13.59-18.04,10.03-35.68,20.77-53.62,30.99-35.5,20.24-73.41,34.48-112.77,45.18-30.57,8.31-61.84,12.81-93.06,17.48-9.84,1.47-19.87,1.61-29.81,2.41-35.56,2.87-71.21,3.16-106.8,1.75-33.91-1.34-67.62-4.88-100.17-15.65-26.72-8.84-51.57-21.53-75.68-35.84-3.29-1.95-6.27-5.38-10.85-3.4v-6c34.08,21.9,69.66,40.73,109.64,49.14,18.14,3.82,36.71,6.56,55.21,7.52,31.21,1.62,62.54,2.41,93.78,1.69,26.52-.61,53.13-2.74,79.43-6.24,24.99-3.33,49.85-8.37,74.37-14.31,50.22-12.17,97.03-32.64,140.7-60.39,17.14-10.89,34.8-21,54.5-26.81,17.99-5.3,36.07-5.89,54.08-.34,22.32,6.88,35.18,23.03,42.32,44.43,6.02,18.05,10,36.61,11.25,55.58,1.14,17.23,2.57,34.63,1.47,51.79-1.71,26.57-6.78,52.76-15.69,78.01-7.86,22.27-16.6,44.25-23.87,66.71-3.76,11.61-6.5,23.89-7.32,36.03-1.07,15.81-2.61,31.54-1.43,47.69,1.72,23.45-.13,47.18-.94,70.78-.88,25.81-7.19,50.63-15.04,75.09-12.64,39.39-31.96,75.22-56.96,108.14-32.77,43.15-73.3,77.12-121.12,102.31-31.7,16.7-65.2,28.68-100.74,33.96-32.89,4.89-65.64,3.22-98.15-4.04-19.46-4.35-39.02-8.34-58.63-11.98-26.74-4.96-53.52-5.23-80.27.43-23.09,4.88-46.18,9.8-69.39,14.08-19.84,3.66-39.72,3.21-59.36-2.03-2.54-.68-5.21-.84-7.82-1.25v-4,.05Z"/>
  <path class="cls-1" d="m3614.03,2114.04c-12.89-2.55-25.09,1.28-37.28,4.36-29.87,7.55-57.76,20.33-85.49,33.37-37.75,17.75-76.18,33.52-117.1,42.46-30.35,6.63-61.04,10.46-92.12,8.78-59.93-3.24-114.08-21.97-160-61.66-21.19-18.32-37.71-40.24-49.97-65.48-8.14-16.76-16.32-33.56-25.54-49.74-19.3-33.85-49.85-53.9-85.59-66.76-22.62-8.14-45.97-13.59-70.14-14.26-27.94-.78-55.89-1.55-83.84-1.52-29.95.02-59.97,2.52-89.82,1.03-24.44-1.22-48.71-6.43-72.98-10.34-29.22-4.71-58.27-10.36-88.16-8.99-46.49,2.13-83.42,20.66-107.97,61.24-10,16.53-19.99,33.07-29.92,49.63-14.66,24.44-35.79,41.63-60.36,55.46-16.22,9.13-32.09,19.04-47.25,29.81-13.79,9.8-22.58,24-24.78,40.81-1.94,14.82-1.21,29.82,3,44.55,10.74,37.54,24.51,73.99,40.33,109.59,15.95,35.89,33.48,71.09,50.29,106.6.37.78.44,1.71-.31,3.06-1.29-2.17-2.68-4.28-3.85-6.51-31.97-61.2-59.49-124.33-81.75-189.71-6.12-17.98-11.17-36.11-10.96-55.53.23-21.52,8.9-38.57,24.37-52.69,14.17-12.93,30.86-22.32,47.8-30.72,32.81-16.27,55.25-42,72.54-73.39,7.7-13.98,16.16-27.62,25.18-40.8,21.45-31.33,51.7-47.54,89.24-52.21,28.87-3.59,57.04.07,85.32,4.54,28.88,4.56,57.65,10.46,86.71,13.16,23.8,2.21,47.95.86,71.94.59,29.95-.33,59.93-2.36,89.83-1.47,36.12,1.07,71.32,8.17,104.48,23.45,37.03,17.07,63.33,44.52,80.12,81.56,9.49,20.93,19.18,41.83,32.88,60.48,23.89,32.53,55.31,55.6,91.91,71.76,25.42,11.23,52.08,17.78,79.85,20.6,55.45,5.63,108.88-3.22,160.71-22.18,25.6-9.37,50.23-21.37,75.44-31.83,21.2-8.8,42.35-17.88,64.04-25.33,13.1-4.5,27.19-6.08,40.81-9.09,2.84-.63,5.58-1.76,8.36-2.67v6h.03Z"/>
  <path class="cls-1" d="m3614.03,1500.04c-11.48-5.18-22.79-10.77-34.47-15.45-48.53-19.48-97.91-36.53-148.31-50.55-41.39-11.51-83.38-20.22-125.87-26.41-49.91-7.28-100.22-8.5-150.43-5.8-33.8,1.82-67.37,7.11-100.42,15.25-31.15,7.67-61.65,17.04-89.96,32.35-36.05,19.5-65.16,45.81-81.99,84.29-21.25,48.56-10.47,96.05,23.89,132.95,21.8,23.41,48.03,40.26,77.48,51.71,30.06,11.7,60.78,21.71,91.21,32.44,30.55,10.78,60.27,23.18,86.79,42.27,19.5,14.04,34.84,31.74,47.81,51.8,5.77,8.92,11.86,17.8,18.95,25.66,19.4,21.49,44.79,31.76,72.73,36.29,36.27,5.88,71.61.27,106.43-9.81,32.92-9.53,65.61-19.86,98.67-28.86,32.44-8.83,65.64-14.02,99.09-17.58,2.86-.3,5.6-1.68,8.4-2.56v4c-20.71,2.93-41.43,5.75-62.12,8.82-31.68,4.7-62.28,13.82-92.9,22.89-26.14,7.74-52.27,15.58-78.69,22.23-21.71,5.47-44.12,7.21-66.42,4.97-42.83-4.3-78.98-20.94-102.2-59.25-14.34-23.67-31.94-44.21-55-59.84-22.77-15.44-47.63-26.62-73.42-35.77-24.45-8.68-49.26-16.37-73.69-25.12-35.32-12.65-69.21-28.2-96.72-54.6-22.4-21.49-38.05-46.7-42.37-78.32-3.98-29.13,3.81-55.4,17.74-80.23,17.66-31.48,44.28-53.6,75.78-70.4,33.83-18.04,70.09-29.1,107.47-36.15,28.03-5.29,56.4-9.43,84.81-11.82,23.16-1.95,46.61-.99,69.92-.53,50.02.98,99.26,8.57,148.09,18.98,62.96,13.43,124,33.17,184.04,56.17,18.63,7.14,37.12,14.64,55.67,21.98v4h.01Z"/>
  <path class="cls-1" d="m.03,1412.04c6.71,4.3,13.38,8.67,20.14,12.89,23.05,14.4,48.12,18.63,74.73,14.43,18.38-2.9,36.77-5.76,55.02-9.33,18.87-3.69,37.69-2.48,56.53-.7,17.52,1.66,35.11,3.11,52.47,5.86,21.2,3.36,41.73-.11,62.33-3.95,22.41-4.18,43.44-12.5,63.9-22.24,31.19-14.85,59.67-33.85,84.57-57.84,26.91-25.92,48.27-55.9,62.99-90.35,13.77-32.21,20.75-65.79,20.33-100.96-.44-36.38,6.65-71.24,21.43-104.69,8.63-19.55,12.61-40.37,14.89-61.78,3.01-28.38-.76-55.63-8.67-82.67-9.61-32.88-38.97-40.78-63.43-36.46-15.93,2.81-30.49,9.56-44.56,17.13-40.33,21.7-83.45,34.8-128.5,41.55-21.31,3.19-42.88,5.26-64.41,6.34-27.89,1.4-55.87,2.29-83.78,1.65-41.37-.94-81-10.45-118.4-28.5-16.48-7.95-32.76-16.33-49.39-23.95-8.82-4.05-18.37-5.73-28.2-4.43v-4c21.89,1.47,40.56,11.66,59.57,21.36,28.23,14.41,57.37,26.92,88.87,32,18.64,3.01,37.6,4.61,56.48,5.36,21.28.84,42.66.74,63.94-.25,33.53-1.57,66.9-5.04,99.8-12.23,30.68-6.7,60.46-15.92,88.89-29.37,15.32-7.25,30.55-14.8,46.24-21.16,12.82-5.2,26.35-6.2,40.17-3.05,14.13,3.22,25.27,10.48,32.23,23.09,3.83,6.93,6.99,14.48,8.93,22.14,4.58,18.05,8.13,36.37,7.88,55.12-.36,27.51-5.37,54.15-15.21,79.91-7.82,20.48-17.21,40.58-19.34,62.73-1.68,17.51-2.87,35.11-3.26,52.7-.72,32.37-7.63,63.28-20.43,92.9-14.99,34.68-36.18,65.25-63.52,91.22-38.8,36.86-84.19,62.79-135.61,77.65-14.62,4.22-29.68,6.7-45.13,7.59-21.39,1.24-42.3-1.42-63.38-3.82-33.45-3.8-66.86-5.55-100.2,2.41-14.81,3.53-30.11,5.53-45.31,6.76-26.37,2.14-49.65-7.15-71.2-21.63-3.23-2.17-6.94-3.63-10.43-5.43v-4h.03Z"/>
  <path class="cls-1" d="m.03,578.04c43.7,26.62,89.75,48.27,138.36,64.18,32.92,10.77,66.53,18.77,101.03,23.08,25.79,3.23,51.59,6.14,77.55,5.24,54.19-1.89,107.07-10.96,158.07-30.19,53.79-20.28,100.61-51.29,142.87-89.91,22.12-20.21,44.39-40.32,69.54-56.92,26.96-17.81,56.34-29.97,87.31-38.62,34.36-9.59,69.52-14.94,104.69-20.5,38.09-6.03,76.27-11.83,113.16-23.75,39.04-12.61,75.71-29.49,106.15-57.82,17.29-16.09,31.15-34.68,40.13-56.61,6.56-16.01,12.92-32.13,18.83-48.39,11.69-32.19,33.3-55.66,62.62-72.53,17.89-10.3,35.94-20.34,53.72-30.83,24.41-14.4,43.08-34.55,56.81-59.17,10.54-18.9,20.33-38.22,30.61-57.27,3.48-6.44,7.6-12.54,11.12-18.96,1.53-2.79,2.31-6,3.43-9.03h6c-9.42,15.65-19.1,31.15-28.19,46.98-7.46,12.98-14.11,26.42-21.32,39.54-15.17,27.6-37.04,48.53-64.33,63.97-15.07,8.53-30.13,17.06-45.21,25.57-30.45,17.18-52.34,41.54-64.22,74.82-6.37,17.84-13.27,35.56-21.17,52.77-14.46,31.49-38.06,55.04-66.95,73.64-38.68,24.9-81.46,39.18-126.22,47.7-38.84,7.39-77.95,13.31-116.89,20.17-29.2,5.14-57.86,12.41-85.73,22.71-37.18,13.74-68.56,36.5-98.08,62.29-19.3,16.87-38.31,34.12-58.28,50.17-42.32,34.02-90.26,57.4-142.23,72.8-30.4,9.01-61.46,14.56-92.93,17.68-14.87,1.47-29.91,2.56-44.81,2.04-46.27-1.59-92-7.15-136.87-19.44-40.29-11.03-78.95-26.11-116.45-44.26-13.47-6.52-26.36-14.23-39.59-21.27-4.07-2.17-8.35-3.94-12.54-5.89v-4h0Z"/>
  <path class="cls-1" d="m2026.03.04c-16.29,19.65-37.63,31.45-61.49,39.12-19.31,6.21-38.89,11.62-58.1,18.12-8.76,2.97-17.15,7.3-25.3,11.76-13.15,7.2-23.13,17.85-30.7,30.75-3.71,6.32-7.43,12.63-10.96,19.05-7.39,13.47-17.93,23.94-30.73,32.16-9.8,6.3-20,11.99-29.68,18.45-5.21,3.48-10.02,7.73-14.46,12.18-5.79,5.8-6.97,13.11-3.07,20.22,2.82,5.13,6.4,10.39,10.96,13.87,6.54,4.99,14.22,8.5,21.52,12.46,6.72,3.64,13.74,6.76,20.35,10.59,8.54,4.95,15.22,11.78,19.16,21.06,1.82,4.29,4.11,8.37,5.92,12.66,6.64,15.74,18.64,25.82,34.24,31.59,14.03,5.19,28.49,9.23,42.57,14.29,40.35,14.52,69.85,40.46,84.87,81.49,3.31,9.05,6.8,18.08,10.89,26.8,7.92,16.87,21.42,27.82,38.75,33.99,25.98,9.24,52.75,14,80.38,11.96,19.04-1.41,37.25-6.48,54.82-14.04,27.5-11.83,54.77-24.37,83.94-31.76,30.92-7.83,62.23-9.31,94.01-6.66,14.82,1.24,29.91.06,44.82-.87,9.9-.62,19.96-1.78,29.51-4.34,42.3-11.34,66.05-39.87,74.86-82.07,5.89-28.21-2.38-53.23-16.15-77.26-8.28-14.44-16.4-28.96-20.25-45.44-4.28-18.3-.54-35.67,5.47-52.8,8.01-22.83,21.54-42.71,33.74-63.35,9.3-15.73,17.93-31.92,25.8-48.4,3.97-8.3,5.69-17.69,8.27-26.63,2.01-6.96-.44-13.09-3.97-18.95h4c6.86,17.25-.96,32.58-6.87,47.87-8.94,23.13-23.16,43.43-35.96,64.48-11.09,18.24-21.44,36.74-26.8,57.74-5.72,22.38-3.3,43.53,7.21,63.9,6.56,12.73,13.77,25.15,19.73,38.15,17.67,38.53,11.3,74.62-12.74,108.25-14.16,19.8-33.86,31.62-57.47,37.06-25.84,5.95-51.88,6.58-78.29,4.45-15.85-1.28-31.95-.45-47.88.42-42.42,2.33-80.65,19.05-118.71,35.91-27.57,12.21-56.08,19.22-86.29,16.68-21.61-1.82-42.79-6.36-62.76-15.22-14.52-6.44-25.51-16.9-32.43-31.24-4.04-8.39-7.89-16.94-10.92-25.72-14.16-41.07-43.12-67.12-82.94-82.02-14.32-5.36-29.17-9.27-43.55-14.48-17.45-6.32-30.65-17.9-36.97-35.55-6.81-19.04-19.82-30.94-38.21-38.19-7.4-2.92-14.45-6.88-21.29-10.99-8.1-4.87-14.8-11.12-18.09-20.54-2.85-8.16-1.54-15.43,4.58-21.06,6.57-6.05,13.86-11.37,21.13-16.59,4.58-3.29,9.62-5.97,14.6-8.65,19.73-10.62,34.41-26.08,44.03-46.24,12.16-25.49,32.08-42.27,58.33-51.48,18.83-6.61,37.95-12.39,57.09-18.05,20.74-6.13,39.75-15.32,55.9-29.85,2.89-2.6,5.05-6,7.55-9.03h4.03Z"/>
  <path class="cls-1" d="m3614.03,2264.04c-8.98-13.81-19.65-25.92-33.46-35.23-5.76-3.88-11.07-8.6-15.99-13.54-18.39-18.47-41.14-26.4-66.51-28.13-29-1.98-55.95,6.31-82.5,16.64-26.98,10.49-53.81,21.41-81.14,30.9-21.07,7.31-43.03,11.64-65.44,12.75-14.28.71-28.65,2.35-42.84,1.46-53.64-3.38-101.34-21.16-139.59-60.42-14.15-14.52-23.68-32.12-32.82-49.92-13.13-25.55-30.91-46.64-56.98-59.69-17.36-8.69-35.78-14.26-54.92-17.67-19.43-3.46-38.97-4.37-58.66-4.17-27.66.28-55.32-.12-82.98.14-22.08.2-43.71-3.26-65.41-6.61-21.01-3.24-42.01-7.62-63.15-8.61-29.39-1.37-57.85,3.71-81.55,23.45-13.57,11.3-22.31,26.35-31.12,41.28-10.48,17.77-19.34,36.98-35.56,50.34-12.78,10.53-27.15,19.14-40.99,28.35-9.99,6.65-20.18,12.95-27.64,22.7-10.6,13.86-13.43,29.41-10.38,46.26,4.13,22.76,12.91,44.06,21.03,65.52,13.09,34.61,28.54,68.19,45.58,101.03.6,1.16,1.03,2.41.27,4.39-1.68-3.21-3.36-6.43-5.05-9.64-1.86-3.53-3.83-7.01-5.6-10.59-18.58-37.67-35.25-76.17-48.64-115.99-4.44-13.19-8.57-26.76-10.41-40.48-2.99-22.28,6.22-40.49,23.95-53.89,9.8-7.41,20.23-14.16,30.98-20.11,21.68-12.01,37.77-29.16,49.94-50.47,7.27-12.72,14.79-25.31,22.68-37.65,18.42-28.83,45.67-42.24,79.07-45.87,28.28-3.08,55.59,2.41,83.07,7.03,23.96,4.03,47.92,7.64,72.34,7.45,34.66-.27,69.35-.88,103.98.18,29.4.9,57.99,6.79,85.02,19.4,27.43,12.8,47.18,32.95,61.09,59.51,8.03,15.33,15.9,30.76,26.9,44.36,19.6,24.24,44.75,40.57,73.15,52.39,34.89,14.52,71.52,18.22,108.75,15.52,41.54-3.01,81.04-14.7,119.29-30.89,22.68-9.6,45.25-19.52,69.22-25.7,20.57-5.3,41.28-7.03,62.29-3.04,19.78,3.76,37.3,11.83,51.74,26.25,5.16,5.15,10.86,9.86,16.74,14.19,10.53,7.74,20.6,15.83,27.86,26.94,1.03,1.57,2.89,2.6,4.36,3.88v6h.03Z"/>
  <path class="cls-1" d="m.03,516.04c5.7,2.7,11.53,5.14,17.06,8.13,43.9,23.69,89.95,41.79,138.66,52.7,23.02,5.16,46.21,9.62,69.96,10.17,14.62.34,29.25,1.98,43.83,1.47,39.7-1.39,78.62-7.71,116.61-19.8,57.6-18.34,107.05-49.95,151.24-90.65,15.66-14.42,31.74-28.48,48.5-41.59,32.43-25.35,70.27-39.17,110.07-47.32,37.43-7.67,75.27-13.32,112.82-20.39,38.41-7.23,75.72-17.93,110.09-37.32,36.12-20.37,62.52-49.13,77.78-87.96,5.23-13.31,11.03-26.41,17.13-39.35,9.48-20.1,24.44-35.66,42.57-48.07,13.18-9.02,26.62-17.75,40.47-25.69,32.8-18.81,55.33-46.25,70.37-80.53,5.75-13.1,12.51-25.76,18.66-38.69,1.69-3.56,2.81-7.39,4.19-11.1h4c-7.03,14.34-14.05,28.68-21.09,43.02-3.38,6.88-6.84,13.71-10.16,20.61-15.15,31.46-39.46,53.88-69.2,71.29-14.35,8.4-28.4,17.41-41.96,27.03-23.17,16.43-36.27,40.28-46.55,65.98-3.46,8.65-6.96,17.29-10.72,25.82-16.86,38.28-45.62,64.9-82.27,83.81-32.87,16.96-68.03,26.82-104.14,33.56-37.56,7.01-75.39,12.72-112.81,20.41-36.76,7.56-72.12,19.93-102.52,42.59-19.7,14.69-38.2,31.12-56.34,47.76-52.86,48.5-113.31,82.46-183.63,98.15-21.11,4.71-42.36,8.47-64.03,9.39-9.95.42-19.89,1.54-29.84,1.55-41.47.05-82.17-5.97-122.17-16.64-43.62-11.64-85.04-28.81-124.59-50.57-3.59-1.98-7.97-2.54-11.98-3.76v-4h0Z"/>
  <path class="cls-1" d="m3614.03,216.04c-28.36-3.81-54.71-13.45-80.16-26.34-21.07-10.67-42.45-20.84-64.26-29.87-18.96-7.85-39.25-10.47-59.77-8.39-27.88,2.82-48.79,17.16-62.33,41.32-7.78,13.89-13.49,28.93-20.38,43.33-6.16,12.89-11.79,26.15-19.21,38.29-10.28,16.84-25.46,27.85-45.17,31.98-5.53,1.16-10.93,2.94-16.47,4.05-23.9,4.81-39.25,19.89-49.64,41-6.51,13.23-10.45,27.26-13.47,41.66-3.41,16.26-6.63,32.63-11.37,48.52-11.16,37.39-35.87,62.34-72.58,75.3-22.03,7.78-44.46,6.87-66.74,1.42-23.45-5.73-45.32-15.44-65.72-28.36-24.14-15.27-36.83-36.9-36.06-65.8.67-24.94,2.01-49.87,2.13-74.8.12-23.9-4.03-47.31-16.15-68.2-7.13-12.29-16.47-23.34-25.16-34.68-9.71-12.68-20.52-24.56-29.58-37.68-14.73-21.33-21.33-45.74-22.95-71.37-2.99-47.57,11.97-89.78,39.41-128.08,2.11-2.94,3.76-6.2,5.63-9.31h4c-20.7,26.61-36.69,55.51-43.24,88.99-10.41,53.21-.43,101.17,36.43,142.31,7.78,8.68,15.16,17.71,22.62,26.67,20.65,24.8,30.18,53.87,31.2,85.64.56,17.58-1.12,35.22-1.44,52.84-.25,13.98-1,28.07.32,41.94,2,20.96,13.99,36.62,31.12,47.86,28.52,18.71,59.68,31.54,93.87,33.97,30.61,2.18,57.51-8.69,80.31-29.33,20.45-18.51,29.97-42.63,35.76-68.82,4.3-19.47,8.87-38.9,14.07-58.14,3.34-12.34,10.16-23.14,18.27-33.01,11.13-13.52,26.12-20.19,42.76-23.97,6.8-1.54,13.53-3.37,20.24-5.25,17.08-4.78,29.46-15.99,37.47-31.06,9.35-17.59,16.86-36.15,25.17-54.29,8.5-18.55,17.48-36.81,33.87-49.96,14.55-11.67,31.33-16.77,49.93-17.57,31.82-1.36,59.94,10.14,87.75,23.5,22.79,10.95,45.57,21.98,68.86,31.78,10.29,4.33,21.8,5.84,32.82,8.31,2.46.55,5.22-.25,7.84-.43v4.03Z"/>
  <path class="cls-1" d="m.03,1264.04c2.72,3.74,5.78,7.28,8.11,11.24,11.88,20.24,26.13,38.53,43.44,54.44,22.55,20.73,48.71,28.44,79.14,23.93,17.37-2.57,34.8-4.91,52.53-5.31,20.52-.46,41.13-2.26,61.44-5.27,27.03-4.01,51.33-16.22,74.95-29.29,22.44-12.42,44.18-26.01,63.12-43.62,26.98-25.06,46.86-54.37,54.91-90.81,1.65-7.45,2.97-15.01,3.86-22.59,2.32-19.76,9.83-37.92,16.98-56.18,5.42-13.85,7.7-28.47,7.68-42.96-.02-13.78-2.47-27.57-6.82-41.09-7.48-23.29-29.51-29.39-46.69-26.54-8.82,1.46-17.49,4.01-26.11,6.47-23.74,6.75-47.93,10.53-72.46,13.16-37.49,4.02-75.04,3.98-112.63,3.72-28.8-.2-56.97-5.43-84.4-13.62-23.84-7.12-45.83-4.41-67.44,7.03-14.78,7.82-28.78,16.68-41.42,27.67-2.48,2.16-5.44,3.76-8.19,5.62v-4c3.38-1.96,7.12-3.5,10.08-5.97,14.17-11.83,29.83-21.14,46.5-28.96,20-9.38,40.21-9.68,61.2-3.46,30.45,9.03,61.59,13.89,93.48,13.38,20.33-.33,40.7.55,60.98-.53,41.2-2.19,82.28-5.57,121.91-18.57,7.22-2.37,14.89-4.34,22.42-4.59,26.25-.87,38.93,9.5,46.1,32.63,8.74,28.21,8.22,56.6-3.4,83.92-10.28,24.17-14.88,49.6-19.63,75.11-5.93,31.86-22.41,58.1-44.13,81.42-23.73,25.49-52.8,43.58-83.26,59.7-22.16,11.73-45.06,21.56-69.92,25.97-7.84,1.39-15.8,2.41-23.74,2.89-16.94,1.03-33.94,1.22-50.86,2.45-13.58.99-27.15,2.59-40.61,4.65-22.42,3.45-42.99-.84-61.9-13.28-24.54-16.15-41.61-39-57.03-63.38-2-3.16-2.75-7.94-8.18-7.41,0-2.64,0-5.3,0-7.97Z"/>
  <path class="cls-1" d="m.03,1956.04c19.75-2.52,39.59-4.46,59.22-7.69,31.48-5.19,62.73-11.75,94.24-16.75,25.72-4.08,51.83-4.25,77.73-2.43,44.29,3.11,82.1,21.42,113.39,52.76,42.48,42.56,89.39,79.84,137.35,115.86,17.83,13.39,36,26.38,54.51,38.82,18.07,12.15,38.29,20.18,58.78,27.21,35.68,12.24,65.69,33.39,93.51,58.16,22.38,19.93,44.35,40.34,67.14,59.79,23.77,20.28,50.26,36.2,80.66,44.7,19.58,5.48,39.62,8.36,59.84,10.5,35.65,3.77,71.67,4.64,106.65,13.82,41.52,10.89,73.94,34.18,97.13,70.3.84,1.3,1.5,2.72,1.26,4.73-3.85-5.22-7.67-10.45-11.54-15.65-25.86-34.79-61.33-53.73-103.27-60.63-24.54-4.04-49.5-5.49-74.22-8.48-25.39-3.07-50.94-5.18-75.7-12.3-28.98-8.34-54.7-22.88-77.72-41.93-20.25-16.76-39.6-34.62-59.15-52.21-24.31-21.88-49.02-43.22-78.79-57.53-9.58-4.6-19.5-8.59-29.53-12.12-32.35-11.4-61.85-27.87-88.84-48.94-33.61-26.23-67.73-51.83-100.6-78.95-22.57-18.62-43.45-39.29-64.98-59.16-26.7-24.65-57.63-40.35-93.92-44.86-25.87-3.21-51.74-2.56-77.67-.29-35.23,3.07-69.44,11.84-104.19,17.57-20.3,3.35-40.85,5.19-61.29,7.71v-2h0Z"/>
  <path class="cls-1" d="m2208.03.04c-28.53,11.05-57.19,21.81-85.52,33.35-8.22,3.35-16.38,7.96-23.07,13.72-18.16,15.64-39.21,24.6-61.98,30.89-12.11,3.35-23.81,8.35-35.41,13.28-8.7,3.7-15.96,9.87-21.26,17.7-11.48,16.96-26.76,29.43-44.37,39.44-3.72,2.12-7.29,4.74-10.35,7.73-5.78,5.64-6.55,11.51-1.8,17.89,2.9,3.89,6.84,7.3,10.95,9.93,9.93,6.37,17.02,14.53,20.47,26.05,3.35,11.19,11.15,18.97,21.78,23.36,20.49,8.45,38.78,20.56,56.69,33.31,7.84,5.59,15.94,11.14,22.63,17.97,16.14,16.49,35.64,26.22,57.56,32.38,23.53,6.62,47.11,11.92,71.76,9.62,18.84-1.76,37.67-3.75,56.52-5.37,6.29-.54,12.65-.3,18.97-.31,17.99-.04,35.98.26,53.96-.1,16.27-.32,31.58-4.45,45.08-13.95,15.52-10.92,23.8-26.42,28.14-44.5,4.26-17.78-.1-34.47-6.8-50.53-8.58-20.56-6.42-39.71,5.37-58.02,7.2-11.19,14.81-22.12,22.59-32.92,10.65-14.77,18.66-30.56,21.88-48.72,1.68-9.5.33-17.53-6.15-25.04-17.73-20.49-38.81-36.31-63.64-47.16h10c2.43,2.15,4.57,4.81,7.33,6.36,15.53,8.72,28.62,20.38,41.68,32.36,13.94,12.79,16.1,26.79,10.74,44.18-5.54,17.96-15.94,32.79-26.42,47.82-6.65,9.54-13.29,19.17-18.96,29.3-8.37,14.96-9.6,30.67-3.83,47.19,3.81,10.91,7.4,22.2,8.78,33.6,4.2,34.66-16.15,65.23-43.57,75.53-21.77,8.18-44.53,9.9-67.76,7.79-11.87-1.08-23.95-.71-35.87.01-20.89,1.27-41.72,3.53-62.61,4.99-26.42,1.85-51.45-5.01-76.29-12.87-11.81-3.73-23.39-7.92-33.24-15.67-5.23-4.11-10.13-8.62-15.11-13.04-22.53-20-46.87-37.31-74.68-49.26-14.87-6.39-26-15.81-30.11-32.26-1.67-6.66-6.29-11.61-11.85-15.63-4.85-3.5-10.03-6.71-14.29-10.85-9.72-9.44-9.37-18.76,1.21-27.17,6.48-5.16,13.67-9.48,20.79-13.77,9.87-5.94,18.46-13.33,24.74-22.89,12.78-19.45,31.15-30.49,52.94-36.77,2.88-.83,5.76-1.65,8.66-2.39,23.14-5.93,44.65-14.76,63.15-30.69,15.35-13.22,34.74-19.48,53.23-26.99,12.02-4.89,24.3-9.12,36.35-13.93,2.58-1.03,4.67-3.29,6.99-4.98h14v.03Z"/>
  <path class="cls-1" d="m.03,452.04c19.15,8.52,38.08,17.6,57.51,25.43,31.27,12.6,63.7,20.92,97.15,25.78,24.52,3.56,49.07,4.82,73.64,3.35,52.48-3.14,102.18-16.67,148.63-41.77,32.55-17.58,61.33-40.07,86.69-66.76,32.96-34.67,72.87-56.64,119.22-66.9,25.29-5.6,50.89-9.81,76.41-14.31,36.75-6.48,73.28-13.61,107.39-29.6,35.25-16.52,62.89-40.86,79.08-76.98,2.72-6.07,6.06-11.89,8.56-18.04,12.76-31.41,34.82-54.6,62.74-73.15,14.09-9.36,27.42-19.96,40.52-30.71,12.56-10.31,21.3-23.87,27.85-38.58,7.3-16.39,13.78-33.16,20.61-49.76h4c-6.32,14.28-12.64,28.57-18.96,42.85-6.92,15.64-14.85,30.99-27.33,42.65-12.83,11.99-27.44,22.09-41.36,32.9-4.2,3.26-8.62,6.26-13.1,9.13-26.31,16.83-43.63,41.07-54.8,69.48-20.66,52.53-59.48,84.53-111.68,102.29-28.12,9.57-57.1,15.31-86.37,19.96-38.11,6.06-76.19,12.25-112.51,26.13-27.54,10.53-50.79,27.38-72.08,47.45-16.7,15.74-32.98,32.16-51.16,46.05-44.09,33.68-93.87,54.97-148.71,64.62-28.35,4.99-56.83,7.01-85.43,5.34-31.59-1.85-62.67-7.55-93.05-16.62-28.79-8.59-56.51-19.77-83.19-33.62-3.06-1.59-6.84-1.78-10.29-2.62v-4h.02Z"/>
  <path class="cls-1" d="m3614.03,1582.04c-36.87-28.14-77.86-48.55-121.1-64.76-28.36-10.63-57.21-19.68-86.69-26.72-38.1-9.1-76.76-13.8-115.79-10.86-34.46,2.59-68.97,6.57-100.52,22.7-27.61,14.11-50.5,33.39-65.35,61.11-17.67,32.98-15.27,65.27,4.33,96.58,13.24,21.16,31.89,36.41,53.73,48.07,21.82,11.65,44.85,20.5,68.44,27.49,36.61,10.85,68.81,29.9,100.39,50.55,19.79,12.94,40.14,24.86,63.36,31.1,24.03,6.45,48.12,8.54,73.02,6.15,32-3.08,61.97-12.1,90.15-27.09,13.18-7.01,26.13-14.67,36.05-26.31v6c-2.52,1.43-5.23,2.6-7.53,4.32-34.42,25.76-73.15,40.04-115.76,45.2-30.76,3.72-60.39.13-89.28-10.26-19.87-7.14-37.59-18.53-55.28-29.83-22.73-14.52-45.02-29.84-70.68-39-20.06-7.16-40.33-13.73-60.26-21.24-25.05-9.44-49.01-21.04-68.44-40.13-23.29-22.88-37.89-49.62-35.89-83.4,1.09-18.44,7.65-35.03,18.13-50.05,21.84-31.29,51.9-51.26,88.02-62.26,19.76-6.02,40.22-8.63,60.77-10.79,46.95-4.92,92.98.42,138.33,12.24,65.75,17.14,128.85,40.72,185.43,79.41,4.04,2.76,8.3,5.2,12.46,7.79v4h-.04Z"/>
  <path class="cls-1" d="m3614.03,534.04c-17.91-5.84-33.48-2.64-46,12.03-3.03,3.55-5.82,7.28-8.77,10.9-5.94,7.31-12.6,13.76-21.31,17.73-.91.41-1.76.96-2.68,1.35-17.95,7.5-25.81,21.76-28.08,40.38-3.31,27.19-12.24,52.38-27.96,75.06-15.35,22.13-35.43,38.74-58.99,51.34-26.56,14.2-55.26,22.98-83.64,32.58-26.21,8.87-52.04,18.55-75.6,33.5-26.34,16.72-44.88,39.3-53.89,69.45-9.91,33.16,1.53,66.22,29.9,86.25,19.14,13.51,40.69,21.14,63.38,25.74,28.71,5.82,57.73,9.22,87.02,10.74,30.86,1.61,61.73,3.53,92.53,6.05,38.21,3.13,75.92,9.26,112.39,21.62,7.22,2.45,14.46,4.85,21.69,7.28v4c-15.64-5.58-31.04-11.99-46.97-16.55-26.6-7.61-54.11-10.7-81.53-13.84-9.57-1.09-19.21-1.66-28.84-2.18-16.94-.91-33.93-1.12-50.83-2.51-24.49-2.02-49-4.22-73.35-7.5-17.41-2.34-34.79-5.7-51.78-10.16-22.17-5.81-42.41-15.83-58.36-33.03-15.82-17.06-22.56-36.87-20.03-60.27,3.43-31.76,19.11-56.21,43.08-76.12,21.35-17.74,46.28-28.82,72.1-38.08,23.8-8.54,47.9-16.29,71.57-25.16,27.38-10.25,52.69-24.22,73.14-45.66,21.99-23.06,35.72-50.31,40.82-81.85,1.17-7.22,2.47-14.43,4.16-21.55,2.9-12.26,9.38-22.22,20.96-27.77,14.78-7.08,26.47-17.26,36.24-30.49,11.49-15.57,27.35-21.66,46.69-17.08.91.22,1.96-.13,2.94-.22v4.02Z"/>
  <path class="cls-1" d="m.03,2024.04c14.45-2.02,28.93-3.82,43.34-6.12,25.6-4.08,51.04-9.3,76.74-12.51,29.48-3.68,59.06-3.3,88.18,3.88,23.73,5.85,44.64,17.18,63.06,33.14,20.89,18.09,40.93,37.25,62.66,54.25,34.34,26.87,69.64,52.53,104.83,78.29,17.58,12.87,37.44,21.72,57.9,28.95,31.71,11.2,58.58,29.9,83.23,52.21,19.26,17.42,38.17,35.24,57.64,52.42,24.6,21.72,52.46,37.72,84.85,44.58,15.26,3.23,30.73,5.66,46.2,7.7,25.36,3.34,50.88,5.57,75.76,12.01,30.16,7.81,56.12,22.43,76.53,46.28,1.69,1.98,3.19,4.11,3.84,7.1-1.67-1.76-3.41-3.45-4.99-5.29-21.9-25.52-49.7-41.15-82.46-47.34-23.15-4.38-46.61-7.18-69.96-10.46-22.08-3.11-44.1-6.3-65.33-13.54-27-9.2-49.87-25.12-70.95-43.78-18.95-16.77-37.45-34.04-56.08-51.16-24.35-22.37-51.89-39.4-83.2-50.3-25.39-8.84-48.46-22.2-69.79-38.31-36.94-27.9-73.66-56.09-109.98-84.78-14.61-11.53-27.91-24.72-41.86-37.1-25.61-22.72-55.96-33.49-89.69-37.34-27.5-3.14-54.44-.15-81.38,3.97-27.27,4.17-54.41,9.15-81.6,13.83-5.86,1.01-11.67,2.27-17.5,3.41v-4h.01Z"/>
  <path class="cls-1" d="m.03,388.04c2.84.91,5.82,1.54,8.51,2.77,28.23,12.96,57.38,23.26,88,28.68,15.33,2.71,30.92,4.53,46.47,5.31,32.39,1.64,64.43-1.06,95.86-9.81,34.69-9.66,67.22-24.13,95.81-45.87,14.7-11.17,27.78-24.92,39.86-39,25.53-29.75,57.71-48.01,95.15-57.02,24.51-5.9,49.54-9.66,74.36-14.27,29.12-5.41,58.08-11.15,85.37-23.45,29.59-13.34,52.45-33.6,67.84-62.25,5.35-9.97,10.79-19.9,16.41-29.72,10.79-18.86,26.57-33.12,43.23-46.57,8.55-6.9,17.06-13.85,25.37-21.03,19.59-16.93,30.29-39.33,38.31-63.29,1.37-4.09,2.31-8.33,3.45-12.49h4c-2.12,5.2-4.6,10.29-6.3,15.63-9.14,28.75-25.17,52.68-49.07,71.26-7.89,6.13-15.55,12.54-23.35,18.79-19.36,15.52-33.18,35.28-44.21,57.25-10.39,20.71-22.95,39.79-41.52,54.29-17.83,13.92-37.91,23.3-59.35,30.09-28.01,8.86-56.99,13.09-85.84,17.82-27.62,4.53-54.95,10.08-80.91,20.93-22.49,9.39-41.74,23.37-57.86,41.64-17.19,19.49-34.42,38.83-56.95,52.62-39.75,24.33-82.27,40.83-128.9,44.89-20.49,1.79-41.27,2.8-61.75,1.49-29.58-1.89-58.55-8.37-86.43-18.78-12.15-4.53-24.01-9.83-36.12-14.48-2.9-1.11-6.28-1-9.44-1.45v-4,.02Z"/>
  <path class="cls-1" d="m.03,2090.04c3.95.15,7.98.88,11.83.36,26.33-3.58,52.52-8.79,78.95-10.88,45.63-3.61,88.13,5.23,123.57,37.04,41.99,37.7,88.3,69.78,134.48,101.99,13.97,9.74,28.9,17.95,45,23.64,30.73,10.85,56.86,28.69,80.34,51.01,18.33,17.43,36.98,34.56,56.08,51.13,23.54,20.42,51.77,30.9,82.05,36.52,24.84,4.61,49.76,8.84,74.43,14.25,22.08,4.84,41.55,15.38,57.71,31.65-2.81-1.99-5.69-3.89-8.42-5.99-19.47-15.01-41.92-22.94-65.73-27.44-21.23-4.01-42.52-7.71-63.79-11.48-37.74-6.69-68.86-25.61-96.29-51.6-17.4-16.49-34.98-32.79-52.78-48.85-15.98-14.41-34.19-25.62-54.36-33.01-28.47-10.44-53.93-25.96-78.13-43.82-26.53-19.58-53.15-39.04-79.35-59.04-13.75-10.5-26.56-22.23-40.04-33.09-21-16.93-44.91-26.46-71.87-29.56-32.16-3.7-63.69.01-95.25,5.28-12.78,2.13-25.62,3.94-38.44,5.9v-4h0Z"/>
  <path class="cls-1" d="m2990.03.04c-21.35,21.38-37.61,45.88-43.52,75.91-3.58,18.18-3.31,36.77,5.72,53.55,8.17,15.19,18.21,29.36,26.93,44.26,6.7,11.45,13.37,23.03,18.61,35.17,3.22,7.45,4.2,16.01,5.33,24.2,1.81,13.15,2.43,26.47,4.43,39.58,1.94,12.68,6.84,24.33,15.87,33.82,10.31,10.84,22.78,14.26,37.29,10.8,15.23-3.63,27.19-12.38,36.93-24.15,8.69-10.5,17.1-21.29,24.95-32.43,14.58-20.68,33.73-35.6,56.2-46.71,11.93-5.9,23.82-11.91,35.5-18.28,30.05-16.41,50.95-41.24,65.19-71.98,10.01-21.63,14.9-44.52,17.77-68.15,2.28-18.74,1.01-37.11-1.2-55.6h4c-.19,5.29-1.19,10.69-.42,15.83,1.76,11.63,1.78,23.11-.13,34.7-2.26,13.74-2.97,27.84-6.41,41.26-9.33,36.35-27.01,68.18-56.9,91.61-12.18,9.54-26.54,16.31-39.99,24.21-15.47,9.08-31.55,17.23-46.39,27.23-15.11,10.19-24.29,26.24-35.37,40.36-7.18,9.15-14.5,18.26-22.56,26.62-8.66,8.99-19.39,14.65-31.76,17.8-18.6,4.74-36.82-5.91-44.9-20.12-7.55-13.29-11.08-27.67-12.28-42.77-.84-10.59-1.47-21.23-2.98-31.73-2.62-18.21-11.26-33.88-21.56-48.85-8.29-12.05-16.53-24.21-23.8-36.89-16.7-29.14-15.63-59.02-2.2-89.07,6.85-15.32,16.17-29.04,26.77-41.98,1.99-2.44,3.27-5.46,4.88-8.21h6,0Z"/>
  <path class="cls-1" d="m.03,322.04c11.7,3.83,23.35,7.79,35.09,11.47,28.23,8.85,57.23,12.86,86.7,11,43.19-2.73,83.83-14.66,120.92-37.33,13.94-8.52,23.32-21.72,32.41-34.92,12.24-17.77,26.36-33.52,45.73-43.8,18.41-9.77,38.15-15.71,58.51-19.5,26.8-4.98,53.82-8.82,80.5-14.35,24.42-5.06,47.08-14.83,65.8-31.85,7.09-6.45,13.04-14.17,19.41-21.4,1.53-1.74,2.73-3.79,3.91-5.8,15.44-26.4,35.12-49.26,57.49-70.02,16.62-15.43,29.21-33.68,35.44-55.82.89-3.17,1.4-6.44,2.08-9.67h4c-2.28,6.22-4.65,12.42-6.84,18.67-5.85,16.7-15.92,30.64-28.19,43.13-6.77,6.89-13.5,13.84-20.52,20.48-14.65,13.86-26.76,29.73-36.85,47.06-20.86,35.84-51.94,57.53-91.98,66.27-24.32,5.31-48.98,9.14-73.49,13.58-22.98,4.16-45.61,9.29-66.59,20.18-13.87,7.19-25.53,16.89-35.19,29.01-7.26,9.12-14.03,18.62-21.11,27.88-9.65,12.61-21.5,22.36-35.74,29.76-28.39,14.74-58.28,24.45-89.87,28.8-44.51,6.12-87.46-.88-129.32-16.35-3.88-1.43-8.2-1.67-12.32-2.46v-4l.02-.02Z"/>
  <path class="cls-1" d="m.03,2158.04c9.87-.71,19.75-1.36,29.62-2.16,31.42-2.55,62.7-3.19,91.95,11.11,9.5,4.64,18.76,10.29,27.05,16.83,36.67,28.91,75.32,55.03,114.34,80.53,14.39,9.41,30.31,16.72,46.11,23.68,20.47,9.02,38.02,21.86,53.98,37.18,12,11.52,24.1,22.94,35.68,34.88,25.09,25.86,56.21,39.48,90.86,46.96,17.84,3.85,35.34,9.33,52.93,14.28,3.45.97,6.65,2.86,9.48,5.65-7.2-2.52-14.28-5.49-21.62-7.46-19.59-5.26-39.25-10.28-58.96-15.04-31.51-7.61-56.88-25.28-79.49-47.68-12.54-12.42-25.04-24.9-37.97-36.91-14.76-13.71-31.43-24.59-50.34-31.9-23.18-8.95-43.94-22.16-64.01-36.58-31.09-22.35-62.58-44.17-93.27-67.06-24.46-18.24-51.45-27.03-81.78-27.38-21.72-.25-43.17,1.78-64.57,5.06v-4h0Z"/>
  <path class="cls-1" d="m.03,254.04c20.98,7.01,42.63,11.03,64.63,10.4,28.39-.82,56.06-6.49,82.33-17.77,9.85-4.23,16.98-11.58,22.26-20.72,3.32-5.76,6.67-11.57,9.23-17.68,11.6-27.65,33.22-43.15,61-51.76,17.27-5.35,35.08-7.23,52.85-9.61,19.41-2.6,38.88-4.75,57.48-11.67,18.15-6.76,34.31-16.48,46.55-31.48,19.75-24.22,39.18-48.73,57.95-73.7,5.26-6.99,7.86-16.02,11.41-24.23.72-1.66.24-3.83.31-5.77h4c-4.87,17.22-13.16,32.64-24.38,46.55-14.42,17.88-28.67,35.89-43.12,53.75-18.8,23.24-43.36,37.14-72.41,42.69-18.57,3.55-37.47,5.34-56.17,8.27-24.45,3.83-48.38,9.13-68.77,24.59-9.01,6.83-15.36,15.57-20.53,25.38-4.49,8.54-8.8,17.19-13.53,25.6-6.27,11.12-15.44,19.04-27.47,23.56-21.59,8.11-43.7,13.23-66.83,15.3-22.6,2.03-44.29-1.22-66.04-6.13-3.53-.8-7.18-1.06-10.77-1.57v-4h.02Z"/>
  <path class="cls-1" d="m3614.03,704.04c-1.6,3.04-3.71,5.92-4.69,9.15-3.11,10.23-6.7,20.14-13.05,28.94-10.9,15.11-26.15,24.6-42.45,32.32-18.92,8.96-38.74,16.05-57.46,25.38-22.3,11.12-44.06,23.36-65.6,35.89-10.94,6.36-20.46,14.82-27.1,26.05-9.83,16.64-8.18,34.36,4.82,48.76,13.31,14.75,30.8,20.88,49.82,22.12,23.2,1.52,46.49,2.16,69.74,2.18,29.03.03,57.75,2.01,85.96,9.19v4c-12.11-6.19-25.4-8.04-38.57-8.63-30.24-1.36-60.53-1.81-90.81-2.23-15.73-.22-31.17-1.98-46.34-6.1-13.25-3.6-24.34-10.66-33.05-21.3-14.27-17.45-13.2-39.88,2.38-57.27,10.85-12.11,24.34-20.62,38.09-28.83,28.67-17.11,59.13-30.5,89.91-43.25,15.39-6.38,30.45-13.46,43.7-23.86,13.01-10.21,21.65-23.23,26.42-39.04,2.39-7.94,5.49-15.66,8.27-23.48v10h.01Z"/>
  <path class="cls-1" d="m.03,184.04c17.11,4.18,34.27,3.64,51.43.44,12.01-2.24,19.57-9.34,22.59-21.2,1.56-6.12,3.47-12.2,4.44-18.42,3.88-24.74,19.84-38.66,42.19-45.81,10.95-3.5,22.72-4.64,34.19-6.28,19.68-2.82,39.96-.99,59.14-7.81,39.9-14.18,65.33-42.12,78.25-82.01.28-.86-.14-1.95-.23-2.93h4c-6.34,19.11-15.01,36.98-28.64,52.05-19.66,21.72-43.58,35.79-73,39.24-19.43,2.28-38.99,3.5-58.39,6.03-14,1.83-26.88,7.03-37.96,16.32-9.09,7.61-14.37,17.19-16.93,28.58-1.82,8.08-3.38,16.28-5.98,24.12-4.17,12.56-13.38,19.18-26.52,21-13.9,1.93-27.72,2.76-41.64.35-2.22-.39-4.61.19-6.93.32v-4h0Z"/>
  <path class="cls-1" d="m.03,2230.04c4.65.21,9.31.74,13.94.59,25.48-.79,48.42,6.5,69.72,20.36,29.86,19.44,59.95,38.53,90.16,57.42,9.56,5.98,19.5,11.58,29.82,16.08,25.98,11.33,46.42,29.5,65.36,49.97,9.94,10.73,20.03,21.61,31.52,30.53,11.18,8.68,24.24,14.95,36.03,22.02-.22-.01-1.51.11-2.69-.17-1.28-.31-2.47-.98-3.69-1.51-19.53-8.51-36.04-21.13-50.64-36.56-11.43-12.08-23.15-23.92-35.14-35.45-11.12-10.71-24.45-18.02-38.2-25.08-19.8-10.17-38.89-21.79-57.88-33.44-22.71-13.92-45.08-28.39-67.44-42.87-18.33-11.87-38.08-18.74-60.07-18.89-6.94-.05-13.87-.65-20.81-1v-2h.01Z"/>
  <path class="cls-1" d="m3112.03.04c-17.29,27.67-24.18,58.07-22.76,90.35.65,14.68,6.35,27.16,20.4,34.18,15.37,7.68,29.99,4.26,43.47-4.37,16.75-10.72,27.27-27.05,36.24-44.27,11.61-22.28,19.38-45.84,21.72-71.01.15-1.64.62-3.26.93-4.89h4c-1.61,6.72-3.41,13.4-4.81,20.16-6.79,32.82-19.47,62.9-41.55,88.49-9.84,11.41-21.97,18.92-37.18,21.6-13,2.29-32.22-4.26-39.06-18.19-4.01-8.15-6.77-16.44-6.85-25.77-.23-27.5,5.81-53.43,18.04-77.99,1.33-2.67,2.28-5.52,3.41-8.28h4Z"/>
  <path class="cls-1" d="m3380.03.04c2.19,6.47,3.56,13.38,6.71,19.36,27.38,51.98,68.87,86.18,126.69,99.65,23.36,5.44,46.95,8.97,70.92,9.95,9.9.41,19.79.7,29.69,1.04v4c-11.88-.97-23.76-1.93-35.64-2.91-33.51-2.78-66.71-7.24-97.99-20.44-42.8-18.06-73.93-48.73-95.24-89.64-3.52-6.75-6.1-13.99-9.12-21.01h4-.02Z"/>
  <path class="cls-1" d="m.03,2310.04c24.73,12.28,49.56,24.35,74.14,36.91,13.93,7.12,27.44,15.08,41.16,22.6,16.69,9.15,29.53,22.62,41.57,36.98,5.09,6.07,10,12.29,13.88,19.42-3.81-4.32-7.9-8.41-11.37-12.99-15.94-21.09-35.5-37.56-59.3-49.41-27.42-13.65-54.26-28.49-81.5-42.5-5.85-3.01-12.37-4.71-18.58-7.01,0-1.33,0-2.67,0-4Z"/>
  <path class="cls-1" d="m3614.03,814.04c-5,1.64-10,3.28-15,4.92-20.29,6.68-30.02,32.19-23.49,52.61,4.71,14.72,22.92,21.59,38.5,14.47v4c-3.96.35-7.94,1.06-11.89.99-23.62-.38-30.47-15.95-30.88-33.71-.13-5.48,1.73-11.19,3.56-16.5,4.57-13.26,14.5-21.12,27.35-25.82,4.02-1.47,7.91-3.3,11.85-4.96v4h0Z"/>
  <path class="cls-1" d="m3522.03.04c2.78,2.53,5.19,5.76,8.41,7.46,21.58,11.44,44.75,17.96,68.88,21.21,4.87.66,9.8.89,14.7,1.33v4c-12.03-2.3-24.13-4.33-36.09-6.95-22.96-5.02-44.39-13.82-63.91-27.05h8.01Z"/>
  <path class="cls-1" d="m.03,2400.04c13.02,5.93,24.62,13.75,33.08,25.99-1.31-.95-2.69-1.81-3.9-2.88-1.48-1.31-2.72-2.89-4.21-4.19-7.44-6.44-14.54-13.47-24.97-14.92v-4h0Z"/>
  <path class="cls-1" d="m2009.4,1969.61c-10.67.34-29,1.95-47.22,1.17-15.84-.68-31.87-2.82-47.28-6.53-28.77-6.93-49.62-24.86-63.69-50.75-4.61-8.48-9.56-16.81-13.71-25.52-14.88-31.14-38.23-54.37-67.62-71.54-20.11-11.75-41.17-21.84-61.47-33.28-19.42-10.94-39.09-21.65-57.41-34.27-29.12-20.06-48.47-48.21-60.65-81.18-4.6-12.45-8.84-25.16-11.68-38.1-7.56-34.51,2.44-64.04,28.45-87.57,13.05-11.8,26.9-22.97,41.49-32.78,34.93-23.47,65.26-51.62,90.68-85.06,19.96-26.25,39.92-52.51,59.4-79.11,38.49-52.55,87.4-92,147.04-118.11,24.56-10.75,50.12-18.52,76.95-19.73,33.85-1.53,62.62,10.28,81.34,39.49,11.81,18.42,21.32,38.36,31.11,58,8.47,16.99,16.28,34.27,27.76,49.58,16.91,22.55,39.09,34.71,67.45,34.57,10.62-.05,21.24-1.67,31.86-1.58,22.76.19,37.45,4.3,45.25,24.95,4.18,11.07,12.59,18.56,22.25,24.92,6.95,4.58,13.83,9.29,20.43,14.35,14.86,11.41,21.62,27.42,24.99,45.25,3.52,18.61,1.3,37.11-1.43,55.52-4.86,32.8-2.97,65.06,7.24,96.66,8.18,25.33,16.69,50.55,25.08,75.8,7.06,21.25,11.92,43.06,12.87,65.39,1.17,27.49-5.66,53.64-18.5,77.81-21.13,39.81-48.4,74.91-83.75,103.24-18.43,14.77-39.04,25.47-62.26,30.54-16.69,3.64-33.48,4.03-50.55,2.36-34.04-3.32-66.3-14.05-99.15-22.37-28.78-7.29-57.75-13.1-95.26-12.13h-.01Zm210.18,33.13c29.57.62,55.41-6.89,79.27-21.52,16.6-10.18,31.09-22.94,44.29-37.15,24.87-26.76,46.56-55.77,61.02-89.58,8.05-18.82,12.55-38.5,12.56-59.15.01-19.85-3.62-39.14-9.37-57.91-8.66-28.32-18.28-56.35-27.56-84.48-11.27-34.16-13.54-68.95-7.9-104.42,3.2-20.14,4.55-40.31-1.09-60.38-3.21-11.43-7.68-22.19-16.84-30.04-7.3-6.26-15.08-12.05-23.09-17.38-11.94-7.95-21.61-17.51-27.07-31.13-3.06-7.64-8.35-14.12-16.59-16.23-7.96-2.04-16.3-3.41-24.5-3.57-10.93-.22-21.89,1.19-32.85,1.56-12.92.44-25.05-3.09-36.63-8.5-15.59-7.28-27.52-19.03-36.2-33.46-9.58-15.93-18.03-32.59-26.26-49.29-9.28-18.82-17.62-38.07-30.24-55.07-17.55-23.64-41.19-35.03-70.32-35.61-20.22-.4-39.86,3.51-58.73,10.14-59.96,21.07-112.05,54.27-152.31,104.01-24.09,29.76-46.2,61.12-69.95,91.17-14.64,18.52-29.99,36.6-46.29,53.66-17.53,18.36-39,32.13-59.46,47.07-13.67,9.98-26.94,20.75-39.11,32.5-17.23,16.63-26.17,37.06-25.54,61.76.44,17.34,4.79,33.46,10.45,49.51,12.37,35.04,30.93,65.85,62.01,87.33,15.85,10.96,32.61,20.66,49.42,30.12,23.79,13.39,48.41,25.31,71.91,39.16,28.36,16.72,51.13,39.24,65.76,69.35,5.24,10.77,11.25,21.18,17.22,31.57,12.5,21.76,30.79,36.36,54.79,43.88,25.83,8.1,52.47,9.63,79.03,7.51,27.78-2.21,55.28-1.71,82.36,4.14,29.25,6.32,58.09,14.5,87.2,21.5,20.38,4.9,40.85,9.51,60.57,8.93h.04Z"/>
  <path class="cls-1" d="m3489.44,2425.31c-2.14-7.2-4.28-14.4-6.41-21.6-8.76-29.56-21.27-57.42-38.16-83.23-3.26-4.98-7.24-9.53-11.26-13.95-6.27-6.9-12.99-13.38-19.27-20.27-20.89-22.91-47.61-29.02-76.54-23.78-19.84,3.59-39.05,10.86-58.38,16.98-35.51,11.24-71.66,18.35-109.02,15.54-38.11-2.87-73.21-14.26-101.29-41.61-7.32-7.13-14.21-15.25-19.24-24.09-17.64-30.96-44.74-47.53-78.82-54.05-9.44-1.81-19.05-3.34-28.63-3.76-25.92-1.14-51.87-1.8-77.81-2.31-20.69-.41-41.02-3.45-61.37-6.79-21.08-3.46-42.25-5.18-63.54-1.42-21.99,3.88-38.65,15.66-50.56,34.2-8.27,12.88-15.87,26.19-23.87,39.24-6.03,9.84-14.38,17.41-23.78,23.93-6.02,4.18-11.93,8.52-18.01,12.61-18.34,12.33-24.41,29.73-18.88,50.44,4.54,16.99,10.5,33.68,16.97,50.04,7.21,18.23,15.73,35.95,23.03,54.33-.99-1.57-2.02-3.12-2.96-4.72-1.01-1.72-2.13-3.41-2.89-5.25-10.96-26.79-21.94-53.58-32.69-80.45-1.84-4.6-2.8-9.58-3.95-14.43-4.88-20.63,1.07-37.44,18.04-50.21,4.78-3.6,9.6-7.22,14.74-10.26,18.47-10.95,30.55-27.35,40.35-45.91,3.73-7.06,7.96-13.86,12.22-20.62,15.77-24.96,39.4-35.62,68.03-37.21,22.81-1.26,45,3.64,67.44,6.29,15.49,1.83,31.07,3.13,46.65,3.88,12.97.63,26.03-.53,38.97.28,23.18,1.45,46.61,1.15,69.23,7.52,8.63,2.43,17.26,5.12,25.52,8.58,18.71,7.84,32.86,21.1,43.73,38.15,7.7,12.06,15.59,23.95,26.53,33.58,23,20.25,50.06,31.34,79.96,35.83,46.26,6.95,90.68-1.77,134.41-16.32,15.77-5.25,31.62-10.62,47.84-14,25.97-5.41,50.36-.71,71.59,16.16,3.36,2.67,6.27,5.92,9.24,9.05,2.52,2.65,4.49,5.9,7.26,8.21,19.72,16.47,31.81,38.28,42.64,60.89,10.24,21.36,17.98,43.69,23.78,66.66.29,1.16.29,2.39.42,3.58-.43.1-.86.19-1.29.29l.03-.02Z"/>
  <path class="cls-1" d="m1405.27,2426.06c2.57-1.82,5.07-3.75,7.72-5.45,65.39-41.86,131.79-82.04,199.93-119.27,36.82-20.12,73.89-39.83,111.46-58.48,37.37-18.55,76.6-32.67,117.48-41.36,27.73-5.9,56-8.65,84.37-6.41,50.19,3.97,96.71,18.24,135.81,51.57,18.43,15.71,33.38,34.44,45.72,55.2,23.08,38.82,38.26,81.13,52.54,123.86-1.73-4.28-3.53-8.53-5.18-12.84-13.82-36.07-27.4-72.25-46.77-105.88-21.13-36.68-49.19-66.23-87.54-85.08-25.62-12.59-52.66-20.56-81.2-22.77-12.92-1-25.9-2.03-38.84-1.87-34.19.41-67.35,7.17-99.89,17.41-46.28,14.57-89.58,35.86-132.25,58.52-72.69,38.61-143.78,80.04-213.83,123.24-14.75,9.09-29.27,18.55-43.9,27.83-1.59,1.01-3.24,1.92-4.86,2.88-.25-.37-.51-.74-.76-1.11h0Z"/>
  <path class="cls-1" d="m2777.09,2425.86c-1.34-2.85-2.85-5.64-3.97-8.57-3.57-9.32-6.93-18.72-10.49-28.04-6.7-17.51-2.37-32.01,12.11-43.46,9.39-7.42,15.98-16.85,21.48-27.24,2.34-4.41,4.63-8.85,7.1-13.2,12.5-22.04,31.9-32.46,56.79-32.51,10.92-.02,21.85,1.48,32.76,2.51,18.84,1.77,37.68,3.67,56.51,5.6,19.14,1.95,38.49,2.15,57.17,7.76,12.03,3.61,23.04,8.87,31.87,17.86,22.68,23.07,51.07,31.34,82.36,32.4,27.07.91,53.73-2.29,80.3-7.26,9.65-1.81,19.33-3.63,29.61-1.33,15.19,3.39,27.15,10.84,35.61,23.63,14,21.16,25.5,43.64,34.08,67.57.32.88.32,1.87-.85,3.39-1.61-3.99-3.37-7.93-4.81-11.98-7.3-20.55-18.29-39.19-29.94-57.43-11.84-18.56-32.64-27-54.46-23.14-29.14,5.17-58.27,10.32-88.12,9.03-32.62-1.42-62.28-9.68-85.83-34.05-8-8.28-18.41-12.94-29.4-16.31-17.34-5.32-35.32-5.97-53.16-7.71-24.46-2.38-48.93-4.7-73.36-7.35-13.69-1.49-27.29-1.58-40.65,1.84-11.67,2.99-21.34,9.47-28.26,19.38-4.75,6.81-9.31,13.86-13,21.28-5.9,11.85-13.81,21.93-23.85,30.42-11.93,10.09-16.23,22.39-10.69,37.42,4.37,11.85,8.9,23.64,13.35,35.46.42,1.13.74,2.3,1.11,3.45-.46.2-.92.39-1.37.59h0Z"/>
  <path class="cls-1" d="m1609.29,2425.79c16.64-12.16,33.18-24.47,49.96-36.44,20.06-14.31,39.97-28.86,60.59-42.33,26.55-17.34,54.53-32,85.37-40.5,35.52-9.8,70.83-11.19,105.72,2.66,27.34,10.86,49.03,29.14,67.23,51.88,15.05,18.8,27.24,39.4,38.03,60.87.57,1.13.91,2.36.08,4.23-3.35-6.21-6.61-12.46-10.06-18.61-14.9-26.55-31.6-51.69-55.15-71.62-19.48-16.49-41.51-27.76-66.65-32.21-26.29-4.66-52.32-2.2-78.01,4.74-33.22,8.97-63.12,24.97-91.21,44.29-31.27,21.5-61.89,43.96-92.79,66-4.03,2.88-8.08,5.73-12.11,8.6-.33-.52-.66-1.04-.99-1.56h0Z"/>
  <path class="cls-1" d="m2920.44,2424.96c1.18-23.59,23.07-40.71,45.57-36.65,4.57.83,9.36,1.19,13.63,2.85,20.22,7.85,40.46,6.34,60.66.44,14.89-4.35,30-5.86,45.38-4.78,16.7,1.18,35.95,11.63,35.93,38.4-.84-2.99-1.88-5.94-2.5-8.97-2.3-11.38-9.14-19.22-19.52-23.61-9.86-4.17-20.19-6.52-31.1-4.29-15.28,3.13-30.66,5.76-45.87,9.21-11.07,2.51-21.77,1.55-32.51-1.26-6.75-1.76-13.63-3.15-20.22-5.4-18.33-6.28-41.54,7.38-47.33,26.58-.75,2.48-1.42,4.98-2.12,7.47h0Z"/>
  <path class="cls-1" d="m1248.63,1447.78c-88.26-.95-162.96-27.6-227.97-80.83-34.25-28.05-62.47-61.77-88.79-97.12-9.14-12.28-18.04-24.77-26.38-37.6-12.87-19.8-15.16-41.47-9.9-64.24,14.19-61.46,33.95-121.08,58.42-179.19,7.62-18.1,15.59-36.37,17.28-56.1,1.41-16.48,2.21-33.4.12-49.71-3.85-29.97-9.96-59.65-15.24-89.43-5.43-30.64-6.99-61.6-4.92-92.5,2.57-38.26,11.93-74.88,32.92-107.72,16.38-25.62,37.65-46.55,62.18-64.24,43.07-31.07,90.97-51.16,142.93-61.52,23.84-4.75,48.02-7.65,72.38-6.48,44.32,2.12,86.13,12.38,122.72,39.19,20.27,14.85,35.75,33.78,48.79,54.92,13.28,21.54,25.86,43.53,39.68,64.72,13.1,20.09,30.19,36.35,51.95,47.13,18.2,9.01,37.06,12.64,57.02,6.5,2.86-.88,5.74-1.76,8.66-2.39,19.85-4.33,34.07,1.83,44.87,19.2,7.72,12.41,11.43,26.2,13.7,40.4,3.8,23.73,4.66,47.66,3.96,71.65-.16,5.3-1.75,10.61-1.49,15.85,1.29,25.52,1.13,51.23,9.59,75.9,5.24,15.28,12.13,29.58,22.45,42.07,13.59,16.45,31.41,25.15,52.24,28.61,8.17,1.36,16.27,3.45,24.23,5.77,20.06,5.86,32,22.82,31.54,43.25-.56,24.87-11.11,44.97-27.29,62.58-20.49,22.31-45.83,38.51-71.16,54.6-29.86,18.97-59.75,38.13-83.04,65.19-19.53,22.69-37.88,46.44-56.07,70.24-19.62,25.67-38.22,52.09-60.87,75.35-32.28,33.15-69.58,58.84-112.03,77.11-32.3,13.9-65.74,23.53-100.91,26.5-11.92,1.01-23.86,1.78-31.6,2.36l.03-.02Zm-4.93-2.55c30.64.8,62.28-4.32,90.75-12.23,68.73-19.08,126.93-55.09,172.56-109.88,25.76-30.93,49.1-63.89,73.66-95.83,25.79-33.54,55.74-62.53,91.75-85.22,21.4-13.49,42.34-27.77,62.88-42.54,15.43-11.1,29.5-23.9,39.91-40.2,8.6-13.47,14.35-28.28,14.62-44.03.33-19.33-7.46-35.44-32.56-43.52-6.61-2.13-13.61-3.07-20.45-4.48-13.77-2.84-27.16-6.56-38.81-14.97-18.27-13.2-29.36-31.44-37.07-52.12-9.94-26.65-10.86-54.61-11.81-82.53-.24-6.92,1.54-13.9,1.45-20.84-.18-13.95-1.34-27.89-1.47-41.85-.16-16.49-3.35-32.35-8.16-48.02-3.22-10.48-8.77-19.46-16.78-26.76-8.39-7.64-18.29-10.63-29.58-7.76-4.52,1.15-9.05,2.21-13.53,3.51-21.51,6.22-41.4,1.49-60.51-8.77-25.19-13.52-42.9-34.48-57.59-58.31-9.96-16.16-19.42-32.62-29.2-48.89-12.97-21.56-28.09-41.27-48.43-56.57-35.37-26.61-76.09-37.27-119.38-39.94-26.73-1.65-53.24,1.45-79.33,6.83-40.72,8.4-79.22,22.98-114.94,44.49-28.76,17.32-54.59,38.1-75.34,64.76-27.36,35.16-39.29,76.04-42.69,119.56-2.41,30.91-.72,61.93,4.23,92.58,4.29,26.57,9.63,52.97,14.38,79.47,5.56,30.99,5.07,61.63-6.25,91.44-7.92,20.85-16.23,41.54-24.22,62.36-17.67,46.04-32.25,93-43.4,141.08-6.27,27.03-2.04,51.46,14.25,73.85,7.84,10.77,15.46,21.71,23.53,32.3,23.05,30.23,47.22,59.54,75.86,84.72,66.23,58.2,143.61,87.39,231.67,88.3h0Z"/>
  <path class="cls-1" d="m1154.01,2027.24c-11.17.89-29.03,2.78-46.94,3.6-21.49.98-42.42-2.74-62.54-10.41-29.23-11.13-54.7-28.84-80.26-46.35-57.7-39.53-115.42-79.03-173.04-118.66-22.21-15.28-45.33-29.52-64.59-48.57-9.86-9.75-19.06-20.6-26.55-32.24-15.5-24.08-16.78-50.13-5.77-76.38,6.81-16.25,14.28-32.29,22.48-47.88,21.4-40.73,45.28-79.97,72.82-116.9,21.52-28.85,46.75-53.78,77.85-72.26,27.27-16.2,56.61-25.26,88.59-21.97,11.46,1.18,23.05,3.97,33.87,7.94,54.62,20.03,105.66,47.36,154.95,78.03,27.99,17.42,55.97,34.92,81.05,56.53,30.39,26.18,55.36,56.61,72.14,93.3,8.9,19.46,15.67,39.6,17.36,61.12,1.4,17.88,2.35,35.81,4.04,53.66,1.62,17.18,2.92,34.37,7.71,51.17,8.44,29.6,27.36,48.93,55.93,59.17,12.83,4.6,25.86,8.65,38.86,12.79,16.07,5.11,30.72,12.71,43.39,23.96,10.92,9.69,17.81,21.8,18.96,36.26.84,10.44-2.73,20.28-8.67,29.11-7.38,10.96-16.96,19.77-27.79,27.02-27.22,18.23-55.91,33.63-87.57,42.86-23.27,6.78-46.82,9.7-70.97,5.29-16.71-3.05-31.59-10.03-45.46-19.63-10.12-7.01-20.04-14.46-30.8-20.34-16.17-8.83-34.14-10.55-59.07-10.21h.02Zm158.72,50.82c11.17-1.52,22.49-2.32,33.47-4.7,37.7-8.18,71.16-25.88,102.67-47.51,10.2-7,19.31-15.34,25.79-26.14,6.79-11.32,10.09-23.42,5.34-36.17-2.5-6.72-6.11-13.38-10.62-18.94-9.62-11.88-22.32-19.98-36.61-25.22-16.86-6.18-34.01-11.58-50.92-17.64-33.02-11.84-51.77-35.8-59.22-69.62-5.54-25.17-5.96-50.82-7.42-76.31-1.75-30.39-8.56-59.17-22.1-86.34-21.77-43.68-54.2-78.24-93.93-105.69-29.56-20.42-60.07-39.58-91.03-57.82-39.04-23-79.63-43.19-122.58-58-10.27-3.54-21.3-5.7-32.14-6.59-29.44-2.4-56.73,5.41-82.16,20.02-30.5,17.52-55.5,41.27-76.67,69.1-29.32,38.53-54.57,79.67-76.77,122.65-8.38,16.23-16.06,32.9-22.81,49.87-5.05,12.69-6.82,26.08-4.48,40.11,3.31,19.9,12.98,36.12,26.11,50.71,18.21,20.24,40.38,35.65,62.65,50.91,57.41,39.36,114.78,78.76,172.23,118.06,25.83,17.67,51.17,36.11,79.61,49.62,26.42,12.55,54.15,17.97,83.35,15.99,18.55-1.26,37.11-2.96,55.69-3.27,20.11-.33,38.71,5.68,55.4,17.13,6.32,4.33,12.6,8.71,18.83,13.18,20.38,14.62,42.84,22.61,68.32,22.62h0Z"/>
  <path class="cls-1" d="m2899.75,975.4c-6.33,0-12.66-.14-18.99.02-24.6.62-49.27.47-73.8,2.21-36.24,2.58-71.76,9.58-106.51,20.44-49.7,15.54-96.93,37.05-144.01,58.96-19.31,8.98-38.71,17.8-58.39,25.92-12.2,5.04-25.15,6.59-38.09,2.16-15.42-5.28-24.38-15.81-25.1-32.43-.53-12.19-5.59-21.71-15.6-28.65-.82-.57-1.52-1.31-2.35-1.86-26.46-17.68-27.21-49.15-10.25-73.92,7.03-10.27,16.3-18.42,26.63-25.36,26.1-17.54,54.44-30.92,82.94-43.84,37.62-17.05,76.29-31.47,116.03-42.91,33.9-9.76,68.13-18.08,103.03-23.42,25.94-3.97,51.9-7.88,77.92-11.26,15.8-2.05,31.73-3.18,47.63-4.43,19.21-1.51,38.43-3.38,57.67-3.89,27.82-.74,53.85,7.39,79.03,18.45,18.76,8.24,35.84,19.24,50.72,33.3,17.4,16.44,30.23,35.55,31.01,60.56.71,22.85-9.14,39.53-29.46,50.35-17.09,9.09-35.52,13.01-54.42,15.26-31.76,3.78-63.64,5.36-95.63,4.34h0Zm9.69-2.41c.01.28.03.56.04.84,19.26-.94,38.55-1.61,57.79-2.91,13.91-.94,27.84-2.19,41.62-4.27,15.86-2.39,31.13-6.9,44.94-15.64,15.4-9.75,22.7-23.72,23.16-41.69.55-21.64-8.01-39.76-22.63-54.83-37.54-38.69-83.79-57.78-137.5-58.99-6.6-.15-13.22,1.1-19.85,1.58-21.22,1.51-42.5,2.39-63.65,4.58-26.1,2.7-52.21,5.72-78.08,9.99-29.17,4.82-58.3,10.32-87.07,17.1-50.01,11.78-98.33,28.87-145.31,49.66-30.16,13.34-59.88,27.61-87.67,45.55-10.76,6.94-20.33,15.31-27.15,26.16-9.99,15.89-14.59,32.71-6.68,51.18,3.87,9.03,10.83,15.05,18.46,20.49,10.74,7.66,16.26,17.85,17.34,31.06,1.63,19.83,15.01,31.52,35.05,32.23,12.01.43,23.13-2.59,33.84-7.36,20.98-9.35,41.83-18.99,62.69-28.62,46.87-21.65,94.02-42.53,143.83-56.81,32.1-9.2,64.78-15.31,98.04-17.05,32.89-1.72,65.87-1.57,98.81-2.24h-.02Z"/>
  <path class="cls-1" d="m260.24,1082.36c28.94,1.99,52.05,7.79,70.43,26.08,8.16,8.12,12.95,18.02,13.9,29.14.8,9.37-2.87,18.18-7.62,26.41-10.84,18.79-27.39,30.74-47.02,38.47-23.18,9.13-43.93,21.96-63.29,37.49-9.06,7.27-18.87,13.65-28.66,19.95-12.24,7.87-25.83,12.88-40.36,13.05-27.54.34-49.85-10.58-64.84-34.18-5.32-8.38-9.21-17.68-13.7-26.59-2.99-5.94-5.5-12.16-8.93-17.82-3-4.95-3.19-9.7-2.42-15.23,4.34-31.37,24.17-49.08,51.95-60.16,22.07-8.8,45.5-12.34,68.36-18.11,14.8-3.73,29.37-8.34,44.14-12.17,10.55-2.73,21.27-4.82,28.07-6.34h-.01Zm6.11,2.73c-13.15.18-23.78,2.25-34.3,5.87-11.61,4-23.48,7.34-35.41,10.3-17.42,4.32-35.07,7.68-52.46,12.11-15.49,3.95-30.48,9.26-44.19,17.96-18.97,12.05-27.83,29.78-30.33,51.33-.29,2.52.1,5.48,1.19,7.74,7.55,15.56,14.43,31.56,23.32,46.34,14.92,24.8,38.09,35.42,66.66,33.74,17.12-1.01,31.89-8.94,45.74-18.44,8.5-5.83,16.76-12.06,24.82-18.5,18.9-15.11,39.96-26.26,62.33-35.27,18.84-7.59,33.58-20,43.02-38.37,9.05-17.61,6.74-35.38-7.16-49.44-17.95-18.16-40.73-24.14-63.24-25.37h.01Z"/>
  <path class="cls-1" d="m2259.69,62.71c15.78-.89,28.87,5.5,39.86,16.72,8.53,8.72,14.41,19.07,18.08,30.69,4.03,12.73,1.67,23.66-9.17,32.14-4.46,3.49-8.76,7.22-13.48,10.33-14.27,9.42-23.22,22.53-28.23,38.7-1.47,4.74-3.54,9.34-5.74,13.8-11.14,22.56-44.08,31.05-63.72,8.81-5.91-6.69-10.95-14.25-15.69-21.85-15.27-24.47-28.51-29.56-56.25-21.24-7,2.1-14.06,4.05-21.21,5.56-7.94,1.69-15.91,1.49-23.55-1.71-6.41-2.68-9.81-7.11-10-14.53-.3-12.08,5-21.15,13.66-28.69,11.25-9.79,24.61-15.78,38.55-20.52,9.13-3.1,18.35-5.97,27.65-8.5,20.66-5.61,40.32-13.6,59.18-23.7,6.45-3.45,13.1-6.57,19.78-9.57,9.51-4.27,19.42-6.9,30.27-6.45h0Zm-2.21,2.28c-11.95-1.14-24.13,4.56-36.21,10.12-12.09,5.56-23.5,12.79-35.89,17.48-18.64,7.05-37.91,12.45-56.87,18.67-15.26,5-30.33,10.74-42.39,21.64-4.98,4.51-9.91,10.62-11.63,16.89-4.21,15.35-1.48,23.26,16.76,24.94,6.15.56,12.6-.61,18.73-1.89,9.11-1.9,18.01-4.79,27.08-6.89,15.06-3.49,27.78.93,37.52,12.74,4.85,5.88,8.49,12.73,12.91,18.98,3.83,5.42,7.47,11.13,12.09,15.83,18.15,18.45,49.35,12.88,60.28-10.62,2.66-5.72,4.68-11.74,6.88-17.66,4.38-11.78,10.69-22.14,21.06-29.7,6.46-4.71,12.77-9.63,19.1-14.51,9.97-7.69,11.99-17.99,9.07-29.54-1.05-4.15-2.89-8.19-4.94-11.98-11.1-20.53-26.13-35.31-53.55-34.49h0Z"/>
  <path class="cls-1" d="m3543.36,1664.57c.81,33.95-21.05,63.69-62.35,66.3-15.86,1-30.84-4.48-45.02-11.37-10.47-5.08-20.79-10.51-30.95-16.2-20.91-11.71-42.96-18.79-67.1-20.46-17.11-1.18-34.53-2.02-50.72-9.31-8.99-4.05-16.86-9.43-23.17-16.9-10.12-11.98-12.05-25.74-7.09-40.28,5.84-17.12,18.16-28.36,34.5-35.34,12.35-5.27,25.35-8.14,38.78-8.23,20.64-.15,41.31-.59,61.92.34,31.29,1.42,62.23,6.04,91.96,16.23,23.35,8,42.93,21.13,53.32,44.96,4.35,9.97,6.46,20.23,5.92,30.26h0Zm-2.39,12.23c.69-38.5-10.73-59.1-32.72-73.15-9.94-6.35-21.4-10.75-32.69-14.45-37.73-12.34-77.08-13.86-116.28-15.61-12.56-.56-25.29.49-37.82,1.94-17.04,1.97-33.29,6.76-46.75,18.23-16.53,14.08-22.54,36.64-14.09,53.96,5.87,12.03,16.31,18.92,28.2,24.16,14.97,6.6,31.08,7.63,46.89,8.47,24.92,1.32,47.53,8.84,69.19,20.62,13.15,7.15,26.44,14.21,40.2,20.06,14.79,6.28,30.25,10,46.68,6.11,32.2-7.63,49.19-28.92,49.2-50.33h0Z"/>
  <path class="cls-1" d="m2279.76,1562.81c-.74,8.6-2.27,17.22-2.04,25.79.3,10.91.58,22.18,3.43,32.58,6.06,22.1,13.76,43.75,20.85,65.57,5.66,17.43,10.8,34.89,11.47,53.46.74,20.58-3.99,39.69-14.07,57.43-17.67,31.1-39.94,58.22-70.42,77.67-24.94,15.92-52.2,21.43-81.21,15.02-25.31-5.59-50.39-12.24-75.58-18.37-21.15-5.15-42.71-8.12-64.34-6.22-22.8,2-45.05-.44-67.34-4.17-21.15-3.53-37.79-14.47-49.95-31.91-6.85-9.82-13.21-20.03-19.09-30.46-9.59-17-22.98-30.25-39.39-40.28-18.18-11.11-36.94-21.25-55.34-32-13.86-8.09-26.9-17.32-37.69-29.36-16.28-18.17-24.21-40.35-29.99-63.46-6.1-24.41.26-45.6,18.18-62.93,8.58-8.3,17.81-16.17,27.69-22.83,27.15-18.3,49.83-40.96,69.05-67.3,15.12-20.72,30.15-41.5,45.47-62.07,26.11-35.08,61.18-57.72,101.66-72.84,17.66-6.6,35.7-9.97,54.66-9.58,20.35.42,37.09,8.04,49.59,23.7,7.64,9.56,14.07,20.18,20.24,30.8,9.2,15.81,16.84,32.51,28.84,46.64,12.89,15.19,29.29,22.6,48.91,23.21,8.65.27,17.32-.21,25.99-.16,13.1.07,22.79,5.28,28.87,17.58,2.54,5.14,7.27,9.37,11.56,13.44,3.09,2.93,7.04,5,10.71,7.29,19.53,12.17,28.41,30.11,28.72,52.72.05,3.66,0,7.33,0,10.99.19.02.38.03.57.05h-.01Zm-2.82,19.2c0-12.56.45-22.25-.09-31.88-1.15-20.27-7.85-37.72-26.55-48.53-2.88-1.66-5.53-3.71-8.34-5.5-6.88-4.4-12.43-9.97-15.93-17.47-5.09-10.88-13.97-15.6-25.71-15.51-8.99.07-17.99.34-26.98.16-20.49-.42-37.83-8.38-50.38-24.42-8.56-10.94-15.62-23.14-22.56-35.23-8.63-15.01-16.18-30.66-27.84-43.71-8.41-9.41-18.46-16.52-30.97-18.99-19.94-3.93-39.72-2.59-59.13,3.54-48.87,15.43-89.04,42.97-118.78,85.13-11.52,16.33-23.22,32.52-34.97,48.69-19.11,26.31-40.88,49.95-68,68.36-8.8,5.97-17.28,12.52-25.34,19.48-20.67,17.84-30.62,39.48-24.23,67.46,8.62,37.74,26.44,68.78,61.11,88.31,16.53,9.32,33.14,18.51,49.63,27.91,23.01,13.12,41.97,30.18,54.79,53.91,5.98,11.06,13.41,21.45,21.11,31.44,7.2,9.35,16.97,15.68,28.13,20.01,14.52,5.64,29.59,7.6,44.96,7.79,16.99.2,33.99-.3,50.97.18,10.26.29,20.7.87,30.68,3.04,23.71,5.15,47.15,11.49,70.77,17.04,19.72,4.63,39.4,8.49,60.06,6.05,19.14-2.26,36.23-8.82,51.37-20.17,28.14-21.09,50.37-47.26,66.09-78.92,10.66-21.48,13-44.09,8.4-67.08-3.25-16.22-8.4-32.16-13.84-47.83-10.83-31.21-22.84-62.07-18.42-93.24v-.02Z"/>
  <path class="cls-1" d="m1273.99,596.16c30.5.57,59.52,6.28,86.25,21.69,18.3,10.55,32.32,25.52,44.6,42.31,6.49,8.87,12.55,18.05,18.79,27.1,10.28,14.9,21.95,28.49,36.73,39.16,17.63,12.72,36.85,17.6,58.5,13.11,17.29-3.58,28.5,1.73,38.09,16.88,8.18,12.92,12.23,27.38,14.01,42.32,1.53,12.85,1.73,25.85,2.42,38.79,1.29,23.89,1.97,47.82,3.96,71.65,1.17,13.94,5.45,27.37,12.36,39.77,5.74,10.28,13.91,17.71,25.04,21.83,4.05,1.5,8.01,3.27,11.96,5.02,17.54,7.73,25.44,23.45,21.52,42.37-3.97,19.16-14.54,34.29-29.32,46.36-13.39,10.94-27.11,21.64-41.56,31.11-32.83,21.52-59.56,48.83-81.77,81.04-13.79,20-28.05,39.75-43.19,58.74-30.79,38.62-70.86,64.1-117.48,79.46-29.68,9.78-60.34,14.48-91.47,12.02-53.53-4.25-101.82-22.13-142.18-58.77-30.42-27.62-53.77-60.74-74.24-96-8.27-14.25-8.7-30.4-5.02-45.71,7.38-30.69,16.01-61.11,24.88-91.41,4.85-16.58,10.85-32.85,17.03-49,10.42-27.25,11.46-55.09,6.65-83.48-4.38-25.88-10.17-51.62-12.73-77.68-3.73-38.01-2.22-75.92,13.58-111.76,14.63-33.2,39.34-57.45,69.47-76.55,32.83-20.81,68.61-33.63,107.32-37.95,8.58-.96,17.19-1.6,25.78-2.39l.02-.03Zm1.32,3.23c-6,0-12-.19-17.99.07-3.63.16-7.22,1.09-10.85,1.52-41.13,4.95-78.63,19.5-112.77,42.8-49.74,33.94-73.68,81.34-74.77,141.29-.65,35.88,4.16,71.01,11.69,105.86,6.81,31.54,7.67,62.74-3.76,93.4-15.83,42.44-29.42,85.55-40.32,129.54-6.3,25.41-5.63,49.33,10.45,71.37,11.18,15.33,21.25,31.52,32.99,46.4,22.51,28.54,49,52.87,82.09,68.69,46.6,22.29,95.48,29.6,146.73,20.92,56.53-9.58,104.73-34.75,143.03-77.25,16.88-18.73,31.87-39.35,46.11-60.21,25.68-37.63,56.11-69.93,94.78-94.58,14.79-9.42,28.17-21.22,41.45-32.78,11.31-9.84,18.16-22.8,21.65-37.48,4.35-18.25-2.63-33.08-19.64-41.19-2.4-1.14-4.89-2.15-7.42-2.95-19.52-6.15-31.42-20.09-37.03-38.89-4.16-13.92-7.3-28.44-8.46-42.89-1.84-22.85-1.64-45.86-2.3-68.8-.11-4,.04-8.02-.35-11.99-1.66-16.97-4.41-33.8-12.36-49.07-11.33-21.78-22.13-24.57-42.1-20.94-14.47,2.63-28.36,1.16-41.82-5.32-19.14-9.21-34-23.19-46.29-40.15-10.16-14.03-19.75-28.47-30.13-42.32-14.9-19.89-33.88-34.6-57.23-43.61-21.07-8.14-42.79-12.26-65.39-11.42v-.02Z"/>
  <path class="cls-1" d="m1305.36,1881.22c.18,10.36-4.43,18.64-11.47,25.7-15.83,15.88-35.1,26.24-55.84,34.04-16.41,6.17-33.39,8.38-50.89,6.32-12.29-1.45-22.46-7.62-32.92-13.57-8.87-5.05-18.13-9.89-27.81-12.93-8.09-2.54-17.09-3.57-25.59-3.16-30.47,1.47-57.61-7.34-82.99-23.68-53.47-34.42-107.26-68.32-160.74-102.73-7.49-4.82-14.34-10.85-20.74-17.09-16.62-16.2-21.37-35.37-13.08-57.45,9.04-24.06,20.39-47.04,33.33-69.18,8.04-13.76,16.34-27.54,26.18-40.01,14.36-18.21,31.93-32.74,54.24-41.06,18.9-7.04,37.7-6.9,56.8-1.95,44.47,11.52,85.83,30.49,125.92,52.53,17.29,9.5,33.46,20.51,47.98,33.93,28.01,25.89,43.83,57.89,49.72,95.46,2.46,15.68,6.67,31.17,11.26,46.39,4.82,15.99,16.08,27.33,30.06,36.04,7.06,4.4,14.6,8.18,21.14,13.24,6.76,5.23,12.99,11.32,18.66,17.72,5.23,5.91,7.01,13.49,6.77,21.42v.02Zm-331.54-318.29c-31.08.1-52.87,10.52-71.98,27.32-15.16,13.33-27.13,29.25-37.06,46.79-14.94,26.39-29.43,52.95-39.73,81.62-6.57,18.31-4.12,34.73,8.5,49.44,4.1,4.78,8.57,9.43,13.59,13.18,9.06,6.77,18.5,13.06,28.07,19.1,29.58,18.66,59.39,36.96,88.92,55.7,19.41,12.31,38.43,25.23,57.73,37.71,21.44,13.86,44.52,22.22,70.55,21.26,24.59-.91,47.46,4.35,67.68,19.45,7.74,5.78,16.98,8.7,26.65,10.62,15.62,3.1,30.53.34,45.1-4.51,22.29-7.42,43.01-17.8,60.17-34.42,15.08-14.6,15.11-37.91-.29-51.46-8.67-7.63-18.35-14.3-28.29-20.23-20.73-12.38-35.41-29.06-40.87-52.99-2.74-11.99-5.84-23.93-7.7-36.07-4.82-31.47-16.96-59.37-38.55-82.94-15-16.36-32.48-29.64-51.77-40.45-36.67-20.56-74.49-38.64-114.86-50.83-13.35-4.03-26.68-8.52-35.86-8.27v-.02Z"/>
  <path class="cls-1" d="m2848.23,913.44c-16.59-.76-33.2-2.42-49.77-2.07-27.95.58-55.52,5.33-82.86,10.82-28.97,5.82-57.75,12.64-86.63,18.94-2.87.63-5.99,1.36-8.77.85-9.69-1.77-13.39-14.24-6.24-22.12,3.47-3.83,8.09-7.09,12.81-9.22,43.2-19.46,87.55-34.91,135.06-40.25,28.82-3.24,57.05-1.78,84.77,6.59,7.23,2.18,14.05,5.89,20.79,9.41,2.85,1.49,5.15,4.17,7.46,6.54,3.72,3.81,5.71,8.45,3.72,13.65-1.92,5-6.71,6.3-11.45,6.56-6.28.34-12.6.08-18.91.08v.22h.02Zm-59.96-43.15c-12.9,1.19-25.88,1.77-38.67,3.7-29.7,4.5-58.41,12.97-86.45,23.58-12.74,4.82-25.2,10.43-37.61,16.07-5.47,2.48-10.45,5.95-12.43,12.24-2.33,7.39,1.06,12.76,8.76,12.96,4.27.11,8.64-.45,12.83-1.34,30.24-6.41,60.34-13.51,90.69-19.3,18.56-3.54,37.5-4.99,56.24-7.63,15.25-2.15,30.36-1.86,45.7-.28,13.13,1.35,26.49.59,39.74.58,4.11,0,8.93-.93,9.62-5.38.52-3.4-.82-8.18-3.14-10.69-3.96-4.28-8.89-8.21-14.18-10.62-22.51-10.24-46.5-13.28-71.09-13.91v.02Z"/>
  <path class="cls-1" d="m2118.24,1780.73c-12.02-2.4-24.36-3.77-35.98-7.42-26.61-8.35-53.54-13.15-81.51-11.99-10.65.44-21.33.26-31.99,0-20.99-.5-38.13-8.39-49.63-26.67-1.42-2.26-3.18-4.35-4.26-6.76-6.97-15.54-19-26.27-32.99-35.22-3.65-2.33-7.11-4.96-10.77-7.27-17.28-10.9-27.34-26.4-31.86-46.37-4.32-19.05,1.06-34.05,15.62-46.25,7.4-6.2,15.24-11.89,22.56-18.19,11.97-10.3,21.42-22.76,29.79-36.08,5.32-8.46,10.78-16.83,16.09-25.3,13.82-22.06,34.74-34.39,58.57-42.63,11.06-3.82,22.35-6.18,34.23-6.03,13.02.16,24.41,4.2,33.44,13.3,7.24,7.29,13.46,15.59,20.06,23.51,3.83,4.6,7.39,9.44,11.29,13.98,9.9,11.54,22.65,17.02,37.73,17.64,5.62.23,11.24.83,16.82,1.57,5.22.69,8.9,3.88,12.34,7.79,3.69,4.18,7.56,8.69,12.31,11.36,15.24,8.57,22.27,21.95,22.76,38.55.6,20.12,7.08,38.47,14.26,56.79,4.49,11.45,8.63,22.89,10.68,35.23,2.08,12.49.36,24.06-5.09,34.86-12.39,24.54-31.15,43.04-56.03,54.89-8.77,4.18-18.28,6.29-28.46,6.68l.02.03Zm.44-3.83c12.26,1.28,24.43-2.07,35.48-8.71,17.67-10.62,32.12-24.72,42.85-42.46,9.24-15.26,12.28-31.51,7.34-48.83-2.19-7.66-4.66-15.28-7.58-22.7-8.19-20.78-15.61-41.56-16.39-64.39-.49-14.28-7.17-25.93-20.19-33.62-5.3-3.13-10.1-7.65-14.01-12.45-4.17-5.11-9.18-7.52-15.32-8.16-3.97-.41-7.98-.43-11.98-.43-12.52-.02-23.88-3.89-32.86-12.39-7.43-7.03-13.58-15.42-20.28-23.22-5.85-6.81-11.35-13.94-17.58-20.37-7.76-8.02-17.92-11.98-28.8-11.91-38.11.25-70.09,13.65-92.88,45.44-3.88,5.41-7.51,11.01-10.91,16.73-13.92,23.42-30.61,44.28-53.24,60.06-5.64,3.94-10.37,9.32-15.05,14.46-5.68,6.23-7.78,14.47-7.24,22.29,1.58,22.86,9.56,42.79,29.96,55.78,2.53,1.61,4.96,3.36,7.49,4.97,17.08,10.85,32.49,23.3,40.94,42.48.66,1.5,1.81,2.79,2.71,4.19,11.03,17.11,27.02,25.06,47.07,25.27,14.65.15,29.31.27,43.96-.02,19.84-.39,38.96,3.29,57.93,8.74,15.61,4.49,31.06,10.24,48.6,9.23l-.02.02Z"/>
  <path class="cls-1" d="m1280.23,1207.63c-52.74-.04-87.1-19.48-111.1-57.24-6.23-9.8-11.09-20.48-16.64-30.72-7.08-13.05-7.27-26.79-3.87-40.77,7.01-28.76,14.05-57.52,21.4-86.19,5.33-20.76,4.62-41.48.3-62.16-3.95-18.92-6.2-37.99-8.05-57.22-1.52-15.86.35-31.19,3.2-46.45,5.85-31.33,24.17-54.32,50.5-71.3,23.49-15.15,49.59-23.41,77.24-24.24,30.58-.91,58.61,7.63,80.98,30.08,7.06,7.08,13.72,14.63,21.33,21.07,7.83,6.62,16.19,12.82,25.04,17.97,9.02,5.25,19.24,7.38,29.86,6.34,11.08-1.09,19.2,3.98,25.77,12.33,6.93,8.8,11.31,18.91,14.14,29.56,5.51,20.71,6.79,41.98,6.58,63.29-.13,13.62-1.22,27.23-1.82,40.85-.47,10.49,1.1,20.38,6.52,29.77,9.75,16.88,6.61,32.84-5.64,47.06-6.27,7.28-13.08,14.4-20.75,20.1-26.2,19.47-45.68,44.43-62.11,72.24-11.41,19.32-24.77,37.15-42.7,51.09-28.79,22.39-61.04,34.92-90.2,34.53h.02Zm-7.81-2.34c48.58-.35,88.46-19.49,119.4-56.56,10.18-12.2,18.45-26.07,26.97-39.58,11.8-18.71,25-36.04,42.22-50.2,10.27-8.45,20.49-17.1,29.7-26.65,16.99-17.61,18.05-32.18,8.34-49.62-4.85-8.71-6.87-17.92-6.38-27.82.71-14.27,2.18-28.58,1.69-42.82-.65-18.88-1.93-37.85-4.8-56.49-1.53-9.93-6.15-19.68-10.86-28.74-6.22-11.95-15.9-19.43-30.66-17.85-4.2.45-8.64-.22-12.83-1.08-15.89-3.24-28.65-12.17-40.18-23.03-7.03-6.62-13.72-13.6-20.53-20.45-22.25-22.35-49.67-31.86-80.59-30.8-27.39.94-53.1,8.77-76.34,23.64-22.56,14.43-39.85,33.22-47.27,59.65-5.05,18-6.68,36.22-5.61,55.06,1.16,20.36,4.1,40.29,8.14,60.19,1.91,9.42,3.89,19.09,3.72,28.6-.18,10.52-2.1,21.16-4.47,31.47-6.71,29.15-13.9,58.2-21.17,87.22-3.73,14.9-2.23,29.12,4.81,42.61,5.23,10.02,10.63,20.02,16.78,29.48,23.43,36.06,56.71,54.07,99.91,53.75v.02Z"/>
  <path class="cls-1" d="m1015.54,1675.96c23.93,1.09,47.1,5.06,68.9,14.95,25.55,11.6,54.11,47.96,48.58,85.85-4.86,33.31-44.28,51.39-70,33.35-9.53-6.68-18.42-14.3-28.13-20.7-18.48-12.18-38.69-20.56-60.14-26.11-5.72-1.48-11.5-3.57-16.55-6.56-8.87-5.25-13.05-13.35-13.61-23.98-1.66-31.31,18.01-48.09,44.31-53.63,8.72-1.84,17.76-2.16,26.65-3.17h-.01Zm-1.28,3.16c-10.73-.63-22.58.61-34.05,4.68-20.76,7.38-35.42,22.05-33.23,50.46.82,10.68,5.83,18.32,15.48,22.55,5.76,2.52,11.86,4.36,17.95,5.99,15.51,4.18,30.56,9.69,44.18,18.13,12.42,7.69,24.49,16.08,35.94,25.14,19.57,15.48,43.17,8.38,56.55-3.82,14.92-13.61,15.75-30.81,12.78-48.79-2.99-18.07-12.8-32.9-25.43-45.51-6.47-6.45-14.38-12.31-22.74-15.85-20.98-8.87-43.09-13.63-67.45-12.98h.02Z"/>
  <path class="cls-1" d="m2006.94,1592.14c10.05,2.15,20.62,3.71,30.74,6.76,13.01,3.92,25.86,8.56,38.4,13.8,8.95,3.74,16.53,9.92,22.51,17.77,7.69,10.11,6.68,20.16-3.35,27.9-10.61,8.18-22.78,10.62-35.84,7.83-4.2-.9-8.38-2.26-12.32-3.98-15.6-6.83-30.99-6.52-46.33.74-8.34,3.95-17.19,4.99-26.29,4.33-14.32-1.03-21.84-13.82-15.25-26.46,2.11-4.05,5.29-7.64,8.38-11.07,6.28-6.97,12.65-13.57,11.64-24.24-.51-5.44,3.87-8.41,8.58-9.66,6.06-1.6,12.31-2.44,19.13-3.72h0Zm62.47,74.17c6.58-2.14,13.35-3.74,19.61-6.49,14.46-6.36,15.4-19.57,6.41-30.08-7.06-8.26-15.8-14.43-25.98-17.97-14.41-5.02-28.96-9.75-43.68-13.75-11.94-3.25-24.22-4.31-36.42-.49-4.93,1.54-8.36,4.28-7.9,9.94.66,8.08-3.65,13.91-8.54,19.5-2.63,3-5.52,5.78-8.02,8.88-11.19,13.91-5.91,27.69,11.62,30.25,2.23.33,4.68.14,6.86-.44,6.41-1.68,13.02-3.03,19.04-5.68,14.93-6.57,29.43-6.52,44.43-.12,6.91,2.95,14.54,4.22,22.57,6.46h0Z"/>
  <path class="cls-1" d="m1272.21,1055.22c.92-7.57,1.49-15.21,2.84-22.71,3.73-20.72.53-41.01-2.87-61.38-3.22-19.3-7.63-38.39-7.67-58.21-.04-20.95,9.87-35.26,28.17-43.07,30.55-13.04,61.26-10.81,90.4,4.47,19.72,10.34,30.77,27.82,34.38,49.93,1.13,6.92,1.75,13.56.31,20.69-2.66,13.2-9.15,23.37-20.19,30.83-4.14,2.8-8.18,5.75-12.42,8.37-19.91,12.31-30.62,30.76-36.02,52.98-2.04,8.39-4.59,16.68-7.39,24.84-3.41,9.93-8.96,18.52-17.3,25.17-9.8,7.82-20.98,11.03-32.68,6.54-12.43-4.77-17.31-15.86-18.89-28.43-.41-3.28-.06-6.65-.06-9.98l-.62-.06v.02Zm59.43-189.93c-13.15-1.28-26.21.7-38.51,6.57-17.18,8.19-28.85,22.26-26.16,45.78,2.45,21.43,6.32,42.69,9.13,64.09,2.03,15.43,4.37,30.77,1.66,46.59-2.06,12.04-2.71,24.5-2.39,36.74.49,18.75,13.47,29.72,31.34,27.83,7.59-.8,13.85-4.48,19.26-9.68,7.14-6.86,11.7-15.36,14.77-24.6,2.94-8.83,5.57-17.78,7.91-26.79,4.85-18.68,13.81-34.46,30.2-45.49,7.45-5.02,14.67-10.39,21.82-15.83,8.02-6.11,12.59-14.27,14.36-24.27,1.3-7.3,1.33-14.33.11-21.71-4.07-24.72-17.46-41.87-40.25-51.91-13.67-6.02-27.95-8.5-43.25-7.31h0Z"/>
</svg>