<?xml version="1.0" encoding="UTF-8"?>
<svg id="katman_1" data-name="katman 1" xmlns="http://www.w3.org/2000/svg" viewBox="0 0 345 78">
  <defs>
    <style>
      .cls-1 {
        stroke-width: 0px;
      }
    </style>
  </defs>
  <path class="cls-1" d="m64.5,75.95c-.44-5.28-.96-10.05-1.19-14.83-.14-2.79-1.44-3.84-4.06-3.81-3.99.04-7.99.01-11.99.01-2.9,0-4.13,1.48-4.23,4.34-.16,4.64-.53,9.28-.83,14.28-12.72,0-25.35.09-37.98-.15-1.14-.02-3.14-2.04-3.19-3.2-.12-2.57.32-5.36,1.27-7.76C9.93,45.5,17.83,26.29,25.41,6.95c1.46-3.73,3.5-5.18,7.43-4.96,4.79.27,9.62.06,14.77.06-.24,3.91-.39,7.49-.7,11.06-.24,2.74.72,4.15,3.62,3.86.33-.03.67,0,1,0,8.32-.08,9.18,1.13,7.81-8.21-.29-1.97-.23-3.99-.37-6.67,5.95,0,11.89-.3,17.75.2,1.52.13,3.41,2.51,4.13,4.26,6.22,15.04,12.23,30.17,18.25,45.29,2.15,5.39,4.48,10.75,6.14,16.29,1.89,6.3.55,7.8-5.82,7.8-11.48,0-22.96,0-34.92,0Zm-2.26-29.73c-.44-7.01-.73-13.12-1.32-19.2-.1-1.01-1.4-2.64-2.27-2.73-3.45-.34-6.97-.41-10.42-.06-.88.09-2.12,1.98-2.25,3.16-.6,5.1-1.04,10.24-1.11,15.37-.01,1.14,1.67,3.21,2.69,3.29,4.58.36,9.21.16,14.68.16Z"/>
  <path class="cls-1" d="m343,53.26h-29.25c-.47,7.46,2.28,10.99,9.03,11.32,5.96.29,11.95.06,18.01.06,1.69,6.56,1.72,6.84-5.09,7.42-6.56.56-13.21.98-19.76.51-5.35-.38-9.26-4.09-10.88-9.17-3.17-9.94-3.66-20.04,1.08-29.68,3.91-7.94,12.57-11.18,22.71-9.11,8.42,1.72,13.42,7.39,14.09,16.41.28,3.77.05,7.58.05,12.23Zm-10.03-8.27c.31-4.66.33-9.4-3.95-10.85-3.55-1.2-8.3-1.06-11.77.34-3.94,1.59-4.28,6.14-3.85,10.5h19.57Z"/>
  <path class="cls-1" d="m161.43,63.47c1.5,7.68,1.54,8.09-5.78,8.76-6.7.61-13.56.81-20.22.05-8.35-.95-13.31-7.07-14.03-14.8-1.03-11.18-1.3-22.6-.18-33.75,1.12-11.16,7.7-16.21,18.89-16.69,5.12-.22,10.31.17,15.41.79,7.4.9,7.38,1.09,5.88,9.21-4.7-.37-9.45-.89-14.22-1.08-11.19-.45-15.67,3.43-16.27,14.65-.38,6.96-.3,13.98.13,20.94.53,8.49,5.1,12.63,13.57,12.64,5.61,0,11.22-.47,16.83-.73Z"/>
  <path class="cls-1" d="m200.74,71.77c3.79-6.57,7.18-12.81,10.95-18.82,1.94-3.1,1.87-5.45-.14-8.55-3.84-5.94-7.16-12.21-10.78-18.49,9.52-1.97,9.94-1.74,14.07,5.91,1.64,3.04,3.51,5.95,5.64,9.54,1.99-3.42,4.02-6.11,5.21-9.13,2.58-6.55,7.08-8.65,14.39-6.46-2.37,4.15-4.17,8.86-7.28,12.44-6.33,7.26-5.88,13.72,0,20.92,2.96,3.63,4.81,8.17,7.25,12.44-9.23,1.71-9.82,1.47-14.02-5.65-1.74-2.95-3.46-5.92-5.5-9.42-2.04,3.33-4.26,5.81-5.2,8.7-2.34,7.2-7.4,7.99-14.58,6.55Z"/>
  <path class="cls-1" d="m174.21,71.83v-37.21c-1.8-.43-3.33-.8-5.18-1.25v-7.87c1.58-.24,3.01-.45,4.64-.69,1.05-6.58-1.12-14.96,6.15-18.35,4.99-2.33,11.39-1.65,17.6-2.36v9.49c-2.42,0-4.68-.07-6.93.01-4.66.17-8.3,5.89-6.21,10.03.42.83,2.11,1.35,3.25,1.44,2.81.2,5.63.07,8.91.07v8.55h-12.12v38.15h-10.09Z"/>
  <path class="cls-1" d="m281.02,25.48c.35,1.55.68,2.95,1.04,4.55,4.96-2.06,9.66-4.02,14.39-5.99,2.71,7.75,1.83,9.62-5.13,11.79q-9.68,3.02-9.69,13.1c0,7.62,0,15.23,0,23.09h-9.91V25.48h9.3Z"/>
  <path class="cls-1" d="m248.57,71.87v-12.43h10.23v12.43h-10.23Z"/>
</svg>