<svg xmlns="http://www.w3.org/2000/svg" width="400" height="400" viewBox="0 0 300 300"><path d="M119.2 4.7c-1.1 2.7-4.6 12.2-7.7 21.3-13.9 40.2-19.4 57.5-18.7 58.2s67.8-65.9 80.1-79.5l4.4-4.7h-56.1zM134.7 50.6c-25.2 25.1-46.6 47.3-47.6 49.3-1.6 3-12.1 32.4-12.1 33.7 0 2.3 10-7.1 57.2-54.3C168.5 43.1 187 23.9 187 22.5c0-2.9-4.5-16.9-5.6-17.2-.5-.1-21.5 20.3-46.7 45.3M172.3 61.2c-18.3 18.4-20.1 20.6-19.6 23.1.3 1.5.9 2.9 1.3 3.2.8.5 36.9-34.2 40-38.5 1.7-2.4 1.8-3.2.9-5.4-.7-1.4-1.5-2.6-1.8-2.6-.4 0-9.7 9.1-20.8 20.2M179.7 85.8 159 106.5l7.4 27c7.9 28.9 20.1 72.1 21.7 77 2.7 8.6 13.5 46.8 16.6 58.5 1.9 7.4 4.7 17.3 6.2 22l2.7 8.5 32.9.3c18.1.1 33.2-.1 33.6-.5.4-.5-1.3-6.6-3.7-13.8-2.5-7.2-20-59.3-38.9-115.8S202.8 66.5 202.5 66c-.3-.6-.9-1-1.3-.9-.4 0-10 9.3-21.5 20.7M142.1 91.9c-.7.5-18.6 18.1-39.8 39.2-27 26.9-39.2 39.8-40.9 43.1-2.4 4.7-3.1 8.8-1.6 8.8.4 0 18.8-18.1 40.8-40.3 36.5-36.7 40.1-40.7 41.8-45.5 1.9-5.6 1.9-6.6-.3-5.3M87.4 178.8c-38.2 37.7-41.3 41.1-43.2 46.3-6 16.3-24.3 70.5-24.5 72.3-.2 2.1-.1 2.1 32.2 2.1h32.4l10.3-36C115.3 191.7 130 140 130 139c0-.5-.3-1-.7-1-.5.1-19.3 18.4-41.9 40.8"/></svg>