<?xml version="1.0" encoding="UTF-8"?>
<svg id="katman_1" data-name="katman 1" xmlns="http://www.w3.org/2000/svg" viewBox="0 0 1024 1024">
  <path d="M454.58,229.42c15.01,12.05,28.32,27.98,37.59,44.91,10.55,19.25,28.3,62.1,7.74,79.08-10.82,8.93-30.11,12.97-40.8,1.98-8.73-8.96-7.61-21.48-10.44-32.56-7.14-27.86-35.24-55.35-63.22-62.78-82.4-21.87-146.82,76.66-92.39,144.15,42.69,52.92,125.46,38.9,180.16,14.5,24.45-10.9,44.42-27.84,68.13-39.87,129.13-65.58,290.64-12.16,360.04,114.29,74.65,136,27.67,305.21-101.85,386.91-143.84,90.74-339.62,33.01-417.65-115.19-7.55-14.34-19.34-38.57-16.81-55.28.74-4.9,4.89-11.23,9.05-13.95,8.8-5.74,18.74-3.81,27.87-.1,24.59,9.98,28.02,35.17,41.21,55.79,106.26,166.18,360.91,144.99,424.75-43.87s-138.66-370.63-317.66-266.46c-50.14,29.18-81.62,52.65-142.89,58.91-100.48,10.27-199.73-52.16-193.44-161.44,6.87-119.36,145.36-185.53,240.62-109.04Z"/>
  <path d="M523.63,106.39c43.72,28.78,81.17,73.27,102.38,121.1,7.6,17.13,27.63,64.43-1.95,70.07-15.7,3-34.89-5.76-42.21-19.91-4.92-9.49-7.71-20.51-12.69-30.31-73.04-143.85-267.96-172.16-376.14-51.53-89.89,100.23-72.69,250.75,32.75,332.15,84.92,65.56,202.8,65.49,295.9,17.21,43.15-22.37,72.64-55.78,124.79-59.21,131.47-8.64,204.45,144.95,121.53,245.25-3.1,3.75-9.72,9.15-10.22,11.59-49.81,47.52-122.34,58.71-183.98,23.91-26.18-14.77-88.31-66.28-51.83-97.27,4.03-3.42,14.33-7.12,19.48-6.38,19.07,2.74,24.56,18.69,35.58,31.14,45.93,51.9,127.71,43.5,158.72-18.96,34.62-69.73-30.66-148.17-106.14-125.14-23.24,7.09-40.59,23.75-60.68,36.32-179.09,111.97-441.91,37.43-488.45-180.38C26.67,154.31,309.2-34.75,523.63,106.39Z"/>
  <path d="M382.69,364.69c-5.52,6.37-17.35,10.61-25.7,8.82-35.23-7.56-26.35-60.78,11.24-53.24,18.97,3.81,26.99,29.97,14.46,44.41Z"/>
  <path d="M673.63,614.38c15.16,12.12,12.08,38.8-5.93,46.81-8.43,3.75-12.93,3.52-21.23-.17-28.37-12.62-17.84-57.72,16.58-51.58,3.23.58,8.01,2.89,10.57,4.94Z"/>
</svg>